<?xml version="1.0" encoding="UTF-8" standalone="no"?>
<!-- Created with Inkscape (http://www.inkscape.org/) -->

<svg
   version="1.1"
   id="svg1"
   width="512"
   height="512"
   viewBox="0 0 512 512"
   sodipodi:docname="atrust.svg"
   inkscape:version="1.4 (86a8ad7, 2024-10-11)"
   inkscape:export-filename="..\app\src\main\res\drawable-nodpi\atrust.png"
   inkscape:export-xdpi="96"
   inkscape:export-ydpi="96"
   xmlns:inkscape="http://www.inkscape.org/namespaces/inkscape"
   xmlns:sodipodi="http://sodipodi.sourceforge.net/DTD/sodipodi-0.dtd"
   xmlns="http://www.w3.org/2000/svg"
   xmlns:svg="http://www.w3.org/2000/svg">
  <defs
     id="defs1">
    <filter
       style="color-interpolation-filters:sRGB;"
       inkscape:label="Drop Shadow"
       id="filter6"
       x="-0.011975437"
       y="-0.010901696"
       width="1.0389202"
       height="1.0354305">
      <feFlood
         result="flood"
         in="SourceGraphic"
         flood-opacity="0.498039"
         flood-color="rgb(0,0,0)"
         id="feFlood5" />
      <feGaussianBlur
         result="blur"
         in="SourceGraphic"
         stdDeviation="2.000000"
         id="feGaussianBlur5" />
      <feOffset
         result="offset"
         in="blur"
         dx="6.000000"
         dy="6.000000"
         id="feOffset5" />
      <feComposite
         result="comp1"
         operator="in"
         in="flood"
         in2="offset"
         id="feComposite5" />
      <feComposite
         result="comp2"
         operator="over"
         in="SourceGraphic"
         in2="comp1"
         id="feComposite6" />
    </filter>
  </defs>
  <sodipodi:namedview
     id="namedview1"
     pagecolor="#ffffff"
     bordercolor="#000000"
     borderopacity="0.25"
     inkscape:showpageshadow="2"
     inkscape:pageopacity="0.0"
     inkscape:pagecheckerboard="0"
     inkscape:deskcolor="#d1d1d1"
     showgrid="false"
     inkscape:zoom="1.3457031"
     inkscape:cx="255.62845"
     inkscape:cy="249.31205"
     inkscape:window-width="1440"
     inkscape:window-height="890"
     inkscape:window-x="-6"
     inkscape:window-y="-6"
     inkscape:window-maximized="1"
     inkscape:current-layer="g1" />
  <g
     inkscape:groupmode="layer"
     inkscape:label="aTrust"
     id="g1">
    <path
       style="fill:#7fc4a0;fill-opacity:1;stroke:none;filter:url(#filter6)"
       d="m 235.69084,37.418272 c -47.00812,6.17215 -88.79524,20.44372 -131,42.151238 -10.694344,5.50052 -20.907554,11.81854 -31.000004,18.34955 -4.37733,2.83263 -9.92403,5.41686 -12.54707,10.16509 -3.51305,6.35931 -1.82406,14.0553 -2.89198,20.90973 -3.44224,22.09393 -2.56095,44.65186 -2.56095,67 0,94.49933 33.71562,194.85349 116.000004,248.07483 24.47551,15.83072 59.70975,35.26236 90,31.63968 22.15997,-2.6503 44.65442,-12.26175 64,-23.06406 22.23105,-12.41345 43.50406,-27.95657 60.91049,-46.65045 49.77463,-53.45618 64.3743,-126.83905 69.17902,-197 1.46768,-21.43164 -0.0895,-42.60233 -0.0895,-64 0,-9.89981 0.57767,-27.09103 -4.02701,-35.98535 -2.51535,-4.85864 -8.61758,-8.11231 -12.97299,-11.1296 -11.15778,-7.72977 -22.97943,-14.81174 -35,-21.10803 -50.04382,-26.212648 -110.63297,-46.884888 -168,-39.352628 m 115,116.575608 v -2 c -53.06354,-12.12967 -114.23944,-8.00366 -166,8.42438 -18.44191,5.85318 -36.91591,12.79788 -54,21.95062 -7.00236,3.7515 -17.964,12.94833 -26,11.625 7.12627,-38.38522 22.01761,-70.98352 56,-93.24072 21.64714,-14.17806 47.8922,-18.53967 73,-20.92904 62.75,-5.971528 131.09946,10.11591 161.19443,71.16976 6.57913,13.34717 10.08517,27.36292 12.36651,42 3.39499,21.78223 2.8739,47.36227 -1.17205,69 -1.07819,5.76611 -0.70298,16.91913 -5.12732,21.25772 -2.26014,2.21634 -6.35694,1.76718 -9.26157,2.16745 -9.02789,1.24405 -17.87198,2.57483 -27,2.57483 -31.41507,0 -62.12946,-1.00751 -93,-7.33563 -7.3316,-1.50293 -25.12633,-1.73026 -30.35339,-7.40589 -2.64034,-2.86694 0.8507,-7.62213 2.27314,-10.25848 4.65134,-8.62082 9.68639,-17.02225 15.37114,-25 16.75208,-23.50922 36.50336,-43.72394 58.70911,-62.08026 9.44131,-7.80463 21.20978,-18.16266 33,-21.91974 m -117,47 c -17.8358,23.50989 -34.30562,45.63913 -48.05556,72 -3.24392,6.21912 -13.45753,20.77173 -12.00154,27.87036 0.80329,3.91644 6.9401,5.32736 10.0571,6.69446 10.54228,4.62378 21.29716,8.60443 32,12.83411 31.91644,12.61315 67.18066,20.82556 101,26.16204 14.97125,2.36237 31.49377,2.14164 46,6.43903 -10.14905,14.40778 -26.46155,26.41837 -42,34.42438 -19.56189,10.07907 -44.49744,20.39291 -67,19.86187 -53.30463,-1.25787 -104.54538,-41.37527 -128.99923,-86.28625 -9.58565,-17.60461 -20.72906,-42.35199 -19.23225,-62.99924 0.69555,-9.59454 18.80922,-17.81674 26.23148,-22.08099 21.98033,-12.62824 44.71246,-21.83081 69,-28.95526 9.58673,-2.81214 23.05608,-7.89844 33,-5.96451 z"
       id="path1"
       inkscape:label="Logo_Shadow"
       transform="matrix(0.66422387,0,0,0.66422387,86.800774,86.966022)" />
    <path
       style="fill:#269b5e;fill-opacity:1;stroke:none;stroke-width:0.664224"
       d="m 239.51022,116.91973 c -31.22392,4.09969 -58.97992,13.57921 -87.01333,27.99786 -7.10344,3.65357 -13.8873,7.85015 -20.59094,12.18821 -2.90753,1.8815 -6.59178,3.59801 -8.33407,6.7519 -2.33345,4.224 -1.21158,9.33586 -1.92092,13.88874 -2.28642,14.67532 -1.70104,29.65883 -1.70104,44.503 0,62.76871 22.39472,129.42634 77.04997,164.77722 16.25722,10.51514 39.66064,23.4221 59.78015,21.01583 14.71918,-1.76039 29.66053,-8.14454 42.51033,-15.3197 14.76639,-8.24531 28.89643,-18.56942 40.4582,-30.98634 33.06149,-35.50687 42.75894,-84.24952 45.95035,-130.8521 0.97487,-14.23541 -0.0594,-28.29748 -0.0594,-42.51033 0,-6.57569 0.3837,-17.99451 -2.67484,-23.90233 -1.67076,-3.22722 -5.724,-5.38839 -8.61697,-7.39255 -7.41126,-5.1343 -15.26349,-9.83831 -23.24784,-14.02045 -33.2403,-17.41107 -73.48505,-31.14206 -111.58961,-26.13896 m 76.38575,77.43231 v -1.32845 c -35.24607,-8.05682 -75.88056,-5.31622 -110.26116,5.59567 -12.24956,3.88783 -24.52043,8.50066 -35.86809,14.58013 -4.65114,2.49184 -11.93212,8.60059 -17.26982,7.7216 4.73344,-25.49638 14.62462,-47.14895 37.19653,-61.93271 14.37855,-9.41741 31.81115,-12.3145 48.48835,-13.90157 41.68004,-3.96643 87.07939,6.71922 107.06918,47.27266 4.37002,8.8655 6.69882,18.1751 8.21414,27.8974 2.25503,14.46827 1.90891,31.45915 -0.77851,45.83144 -0.71616,3.82999 -0.46693,11.23809 -3.40569,14.11989 -1.50124,1.47215 -4.22243,1.1738 -6.15175,1.43967 -5.99654,0.82633 -11.871,1.71027 -17.93405,1.71027 -20.86664,0 -41.26787,-0.66922 -61.77282,-4.87251 -4.86982,-0.99828 -16.6895,-1.14928 -20.16144,-4.91916 -1.75378,-1.90429 0.56505,-5.0628 1.50987,-6.81393 3.08953,-5.72616 6.43393,-11.30659 10.20988,-16.6056 11.12713,-15.61538 24.2464,-29.04248 38.99599,-41.23519 6.27115,-5.18402 14.08804,-12.06407 21.91939,-14.55961 m -77.71419,31.21852 c -11.84697,15.61583 -22.78661,30.3146 -31.91965,47.82412 -2.15469,4.13089 -8.93882,13.79708 -7.97171,18.51216 0.53356,2.60139 4.60978,3.53855 6.68016,4.44662 7.00244,3.07122 14.14609,5.71526 21.25517,8.52472 21.19966,8.37795 44.623,13.83283 67.08661,17.37745 9.94426,1.56914 20.91891,1.42253 30.5543,4.27696 -6.74125,9.56999 -17.5764,17.54771 -27.89741,22.86549 -12.99347,6.69476 -29.55626,13.54546 -44.503,13.19273 -35.4062,-0.83551 -69.44153,-27.48244 -85.68436,-57.31339 -6.36702,-11.6934 -13.76874,-28.1312 -12.77452,-41.8456 0.462,-6.37292 12.49353,-11.8343 17.42357,-14.66672 14.59986,-8.38798 29.69909,-14.50054 45.83145,-19.23277 6.36773,-1.86789 15.3144,-5.24633 21.91939,-3.96177 z"
       id="path1-8"
       inkscape:label="Logo" />
  </g>
</svg>
