<?xml version="1.0" encoding="UTF-8" standalone="no"?>
<!-- Created with Inkscape (http://www.inkscape.org/) -->

<svg
   width="210mm"
   height="297mm"
   viewBox="0 0 210 297"
   version="1.1"
   id="svg1"
   inkscape:version="1.4 (86a8ad7, 2024-10-11)"
   sodipodi:docname="bp.svg"
   inkscape:export-filename="bp.png"
   inkscape:export-xdpi="96"
   inkscape:export-ydpi="96"
   xmlns:inkscape="http://www.inkscape.org/namespaces/inkscape"
   xmlns:sodipodi="http://sodipodi.sourceforge.net/DTD/sodipodi-0.dtd"
   xmlns="http://www.w3.org/2000/svg"
   xmlns:svg="http://www.w3.org/2000/svg">
  <sodipodi:namedview
     id="namedview1"
     pagecolor="#ffffff"
     bordercolor="#000000"
     borderopacity="0.25"
     inkscape:showpageshadow="2"
     inkscape:pageopacity="0.0"
     inkscape:pagecheckerboard="0"
     inkscape:deskcolor="#d1d1d1"
     inkscape:document-units="mm"
     inkscape:zoom="0.6137977"
     inkscape:cx="397.52511"
     inkscape:cy="561.25984"
     inkscape:window-width="1440"
     inkscape:window-height="890"
     inkscape:window-x="-6"
     inkscape:window-y="-6"
     inkscape:window-maximized="1"
     inkscape:current-layer="layer1"
     showgrid="false" />
  <defs
     id="defs1">
    <filter
       style="color-interpolation-filters:sRGB;"
       inkscape:label="Drop Shadow"
       id="filter28"
       x="-0.023541974"
       y="-0.023541974"
       width="1.0568931"
       height="1.0568931">
      <feFlood
         result="flood"
         in="SourceGraphic"
         flood-opacity="0.498039"
         flood-color="rgb(0,0,0)"
         id="feFlood27" />
      <feGaussianBlur
         result="blur"
         in="SourceGraphic"
         stdDeviation="2.000000"
         id="feGaussianBlur27" />
      <feOffset
         result="offset"
         in="blur"
         dx="2.000000"
         dy="2.000000"
         id="feOffset27" />
      <feComposite
         result="comp1"
         operator="in"
         in="flood"
         in2="offset"
         id="feComposite27" />
      <feComposite
         result="comp2"
         operator="over"
         in="SourceGraphic"
         in2="comp1"
         id="feComposite28" />
    </filter>
    <filter
       style="color-interpolation-filters:sRGB;"
       inkscape:label="Drop Shadow"
       id="filter36"
       x="-0.032477426"
       y="-0.032656163"
       width="1.0784871"
       height="1.0789191">
      <feFlood
         result="flood"
         in="SourceGraphic"
         flood-opacity="0.498039"
         flood-color="rgb(0,0,0)"
         id="feFlood35" />
      <feGaussianBlur
         result="blur"
         in="SourceGraphic"
         stdDeviation="2.000000"
         id="feGaussianBlur35" />
      <feOffset
         result="offset"
         in="blur"
         dx="2.000000"
         dy="2.000000"
         id="feOffset35" />
      <feComposite
         result="comp1"
         operator="in"
         in="flood"
         in2="offset"
         id="feComposite35" />
      <feComposite
         result="comp2"
         operator="over"
         in="SourceGraphic"
         in2="comp1"
         id="feComposite36" />
    </filter>
  </defs>
  <g
     inkscape:label="BP"
     inkscape:groupmode="layer"
     id="layer1">
    <rect
       style="display:inline;fill:#ffd86e;fill-opacity:1;stroke-width:0.46351"
       id="rect27"
       width="203.89114"
       height="203.89114"
       x="3.0544281"
       y="46.554428"
       rx="17.518518"
       ry="17.518518"
       inkscape:label="Shadow" />
    <rect
       style="display:inline;fill:#ffb706;fill-opacity:1;stroke-width:0.46351;filter:url(#filter28)"
       id="rect27-7"
       width="203.89114"
       height="203.89114"
       x="3.0544281"
       y="48.671097"
       rx="17.518518"
       ry="17.518518"
       inkscape:label="Background" />
    <rect
       style="fill:#ffc537;fill-opacity:1;stroke-width:0.365516"
       id="rect27-7-2"
       width="160.78519"
       height="160.78519"
       x="24.607403"
       y="70.224075"
       rx="13.814815"
       ry="13.814815"
       inkscape:label="Inner" />
    <path
       style="display:inline;fill:#3c3d3d;stroke-width:0.392636;filter:url(#filter36);fill-opacity:1"
       d="m 67.55401,219.73953 c -0.548034,-1.24172 -8.973824,-20.17514 -18.723967,-42.07428 l -17.727527,-39.8166 1.583761,-1.41024 c 0.871069,-0.77561 16.212184,-14.92673 34.091374,-31.44692 17.879184,-16.520174 32.744096,-30.013188 33.033146,-29.984464 0.571833,0.05688 78.155503,45.891064 79.018773,46.682064 0.43762,0.40095 -1.09057,8.12002 -8.98598,45.38949 -5.23231,24.69852 -9.56316,44.9656 -9.62414,45.03801 -0.11544,0.13711 -89.761763,9.86906 -90.976921,9.87642 -0.466934,0.003 -1.016231,-0.73026 -1.688519,-2.25348 z m 15.475441,-2.6249 c 6.770272,-0.74146 12.359374,-1.40388 12.420246,-1.47204 0.102449,-0.11456 -34.564177,-33.21093 -41.962335,-40.06163 l -3.272024,-3.02989 10.225641,22.95619 c 5.624109,12.62591 10.237626,22.95606 10.252273,22.95588 0.01484,-2e-4 5.565925,-0.60701 12.336199,-1.34851 z m 23.401859,-5.95793 c 3.59803,-1.85923 6.47377,-3.44852 6.3905,-3.53178 -0.25437,-0.25437 -33.749863,-12.76279 -33.845158,-12.63901 -0.127023,0.16495 20.353169,19.54299 20.659216,19.54748 0.139501,8.5e-4 3.197382,-1.51748 6.795442,-3.37669 z m 11.40371,2.17752 c 4.31834,-0.4528 7.88288,-0.85466 7.92124,-0.89302 0.0384,-0.0386 -1.79181,-0.75671 -4.06702,-1.59635 l -4.13675,-1.52662 -3.13915,1.52968 c -1.72653,0.84133 -3.95962,2.01498 -4.9624,2.60812 -1.64028,0.97021 -1.70503,1.05952 -0.64533,0.88996 0.64787,-0.10368 4.7111,-0.55894 9.02941,-1.01177 z m 29.00309,-3.09568 c 5.80137,-0.63651 10.59015,-1.2107 10.64172,-1.27598 0.0516,-0.0654 1.11544,-4.97757 2.36416,-10.9162 1.24872,-5.93862 2.36434,-11.04614 2.47916,-11.35005 0.11486,-0.3039 -3.1466,1.18703 -7.24759,3.31318 l -7.45634,3.86571 -5.76267,8.5321 c -5.16462,7.64667 -6.01052,8.98892 -5.66454,8.98863 0.0541,-5e-5 4.84474,-0.52087 10.6461,-1.15739 z m -10.19732,-6.1007 c 2.47673,-3.66805 4.462,-6.71034 4.4117,-6.76062 -0.1343,-0.1343 -18.35382,9.19564 -18.76988,9.61171 -0.3243,0.3243 8.8976,4.07315 9.57549,3.8926 0.15376,-0.0409 2.30597,-3.07561 4.78269,-6.74369 z m -5.26871,-5.7807 14.01689,-7.14933 7.3215,-10.87078 7.32146,-10.87081 -2.37336,-12.87806 c -1.30538,-7.08294 -2.48552,-13.06462 -2.62257,-13.29265 -0.72938,-1.21355 -23.02982,-28.57464 -23.40771,-28.71966 -0.3588,-0.1377 -52.485428,14.18918 -52.686326,14.4807 -0.318794,0.46263 -4.933824,60.14549 -4.659392,60.25655 2.561189,1.03666 42.470148,16.12726 42.724198,16.15512 0.19165,0.021 6.65602,-3.17896 14.36531,-7.11108 z m 30.95127,-15.82005 c 0.12836,-0.11546 -1.02006,-6.71052 -1.32537,-7.61161 -0.14024,-0.41409 -6.53166,8.46256 -8.95877,12.44242 -0.23393,0.38357 9.64873,-4.25866 10.28414,-4.83081 z m -89.047614,-25.7625 c 2.399154,-28.91339 2.548577,-30.29318 3.315663,-30.61614 1.931887,-0.81336 56.021631,-15.68368 56.337711,-15.48834 0.19326,0.11947 4.90706,5.86363 10.47512,12.76484 5.56803,6.9012 10.18933,12.48201 10.26958,12.40179 0.19535,-0.19536 -4.69411,-27.04468 -4.9844,-27.3706 -0.42046,-0.47203 -69.948904,-8.707567 -70.326425,-8.33005 -0.645531,0.64553 -29.872427,65.38174 -29.722035,65.83291 0.156403,0.4692 21.539424,21.03223 21.904336,21.06434 0.119906,0.0106 1.348642,-13.60587 2.73045,-30.25875 z m 92.403734,13.76931 c 0.52404,-2.47358 0.92569,-4.52943 0.89256,-4.56858 -0.0331,-0.0392 -0.72652,0.88227 -1.54084,2.04754 l -1.48056,2.11868 0.45055,2.58736 c 0.24782,1.42305 0.51243,2.5255 0.58804,2.44991 0.0754,-0.0755 0.56621,-2.1613 1.09025,-4.63491 z m -0.43327,-8.75221 2.17826,-3.27322 -3.94937,-4.87398 c -2.17593,-2.68535 -3.8426,-4.45143 -3.71158,-3.93295 0.13074,0.51761 0.82048,4.18385 1.5326,8.14722 0.71214,3.96339 1.40212,7.20613 1.53331,7.20613 0.13117,0 1.21871,-1.47294 2.41678,-3.2732 z M 59.7253,132.67238 c 6.850486,-15.11651 12.558187,-27.66126 12.683792,-27.8772 0.125544,-0.21596 -0.112636,-0.12762 -0.529559,0.19631 -1.074461,0.83494 -36.211606,33.30408 -36.431343,33.66509 -0.09975,0.16389 2.070308,5.35631 4.822359,11.53871 2.752051,6.18241 5.133579,11.57134 5.292283,11.97543 0.387459,0.98648 -0.326854,2.47429 14.162468,-29.49834 z m 112.69182,6.08587 3.2037,-15.11653 -9.31939,-5.5438 c -12.31899,-7.32819 -13.71864,-8.11818 -13.70682,-7.73647 0.0564,1.81914 5.8966,31.62119 6.30947,32.19689 2.67894,3.73525 9.98152,12.28041 10.1276,11.85086 0.1,-0.29395 1.62342,-7.33688 3.38544,-15.65095 z m -30.25702,-34.8936 c -1.18194,-1.08236 -41.90563,-24.82674 -42.300288,-24.663616 -0.515903,0.213245 -18.46743,16.728761 -18.647913,17.156202 -0.06005,0.142169 5.417249,0.92748 12.171723,1.745086 14.151638,1.713001 48.710608,5.987268 48.972788,6.056938 0.0972,0.0258 0.008,-0.10669 -0.19631,-0.29461 z"
       id="path1"
       inkscape:label="Rect" />
  </g>
</svg>
