<?xml version="1.0" encoding="UTF-8" standalone="no"?>
<!-- Created with Inkscape (http://www.inkscape.org/) -->

<svg
   width="210mm"
   height="297mm"
   viewBox="0 0 210 297"
   version="1.1"
   id="svg1"
   inkscape:version="1.3.2 (091e20e, 2023-11-25)"
   sodipodi:docname="bp.svg"
   inkscape:export-filename="../app/src/main/res/drawable-nodpi/bp.png"
   inkscape:export-xdpi="96"
   inkscape:export-ydpi="96"
   xmlns:inkscape="http://www.inkscape.org/namespaces/inkscape"
   xmlns:sodipodi="http://sodipodi.sourceforge.net/DTD/sodipodi-0.dtd"
   xmlns="http://www.w3.org/2000/svg"
   xmlns:svg="http://www.w3.org/2000/svg">
  <sodipodi:namedview
     id="namedview1"
     pagecolor="#ffffff"
     bordercolor="#000000"
     borderopacity="0.25"
     inkscape:showpageshadow="2"
     inkscape:pageopacity="0.0"
     inkscape:pagecheckerboard="0"
     inkscape:deskcolor="#d1d1d1"
     inkscape:document-units="mm"
     inkscape:zoom="0.6137977"
     inkscape:cx="396.71051"
     inkscape:cy="561.25984"
     inkscape:window-width="2560"
     inkscape:window-height="1416"
     inkscape:window-x="0"
     inkscape:window-y="24"
     inkscape:window-maximized="0"
     inkscape:current-layer="layer1"
     showgrid="false" />
  <defs
     id="defs1">
    <filter
       style="color-interpolation-filters:sRGB;"
       inkscape:label="Drop Shadow"
       id="filter28"
       x="-0.023541974"
       y="-0.023541974"
       width="1.0568931"
       height="1.0568931">
      <feFlood
         result="flood"
         in="SourceGraphic"
         flood-opacity="0.498039"
         flood-color="rgb(0,0,0)"
         id="feFlood27" />
      <feGaussianBlur
         result="blur"
         in="SourceGraphic"
         stdDeviation="2.000000"
         id="feGaussianBlur27" />
      <feOffset
         result="offset"
         in="blur"
         dx="2.000000"
         dy="2.000000"
         id="feOffset27" />
      <feComposite
         result="comp1"
         operator="in"
         in="flood"
         in2="offset"
         id="feComposite27" />
      <feComposite
         result="comp2"
         operator="over"
         in="SourceGraphic"
         in2="comp1"
         id="feComposite28" />
    </filter>
    <filter
       style="color-interpolation-filters:sRGB;"
       inkscape:label="Drop Shadow"
       id="filter36"
       x="-0.031782309"
       y="-0.031949793"
       width="1.0768072"
       height="1.077212">
      <feFlood
         result="flood"
         in="SourceGraphic"
         flood-opacity="0.498039"
         flood-color="rgb(0,0,0)"
         id="feFlood35" />
      <feGaussianBlur
         result="blur"
         in="SourceGraphic"
         stdDeviation="2.000000"
         id="feGaussianBlur35" />
      <feOffset
         result="offset"
         in="blur"
         dx="2.000000"
         dy="2.000000"
         id="feOffset35" />
      <feComposite
         result="comp1"
         operator="in"
         in="flood"
         in2="offset"
         id="feComposite35" />
      <feComposite
         result="comp2"
         operator="over"
         in="SourceGraphic"
         in2="comp1"
         id="feComposite36" />
    </filter>
  </defs>
  <g
     inkscape:label="BP"
     inkscape:groupmode="layer"
     id="layer1">
    <rect
       style="display:inline;fill:#ffd86e;fill-opacity:1;stroke-width:0.46351"
       id="rect27"
       width="203.89114"
       height="203.89114"
       x="3.0544281"
       y="46.554428"
       rx="17.518518"
       ry="17.518518"
       inkscape:label="Shadow" />
    <rect
       style="display:inline;fill:#ffb706;fill-opacity:1;stroke-width:0.46351;filter:url(#filter28)"
       id="rect27-7"
       width="203.89114"
       height="203.89114"
       x="3.0544281"
       y="48.671097"
       rx="17.518518"
       ry="17.518518"
       inkscape:label="Background" />
    <rect
       style="fill:#ffc537;fill-opacity:1;stroke-width:0.365516"
       id="rect27-7-2"
       width="160.78519"
       height="160.78519"
       x="24.607403"
       y="70.224075"
       rx="13.814815"
       ry="13.814815"
       inkscape:label="Inner" />
    <path
       id="path1"
       style="display:inline;fill:#3c3d3d;fill-opacity:1;stroke-width:0.392636;filter:url(#filter36)"
       inkscape:label="Rect"
       d="m 99.666016,73.359375 c -0.992403,0.377665 -1.776083,1.202632 -2.608468,1.856605 -22.427654,20.110356 -44.360739,40.77251 -66.607261,61.08158 -0.786572,0.4866 -1.324057,1.54203 -0.741089,2.39137 8.339979,18.5829 16.572788,37.22149 24.878037,55.82207 4.034281,9.03203 8.030539,18.08294 12.108077,27.09447 0.570642,1.18643 1.813025,2.27041 3.214546,1.91674 27.434063,-2.85296 54.850962,-5.86864 82.266892,-8.88978 2.8998,-0.32321 5.79796,-0.66076 8.69434,-1.01329 1.13051,-0.50718 0.96101,-1.90025 1.28352,-2.88905 5.45879,-25.49454 10.91057,-50.9916 16.18931,-76.52379 0.77298,-3.94452 1.6381,-7.88198 2.13655,-11.87036 0.0902,-0.9677 -0.41303,-1.94043 -1.33017,-2.31433 -8.16693,-5.00001 -16.43856,-9.82913 -24.65679,-14.74573 -17.12621,-10.13781 -34.26056,-20.268701 -51.45763,-30.279962 -1.02796,-0.550714 -2.03124,-1.208707 -3.110099,-1.62873 -0.08631,0.0028 -0.173877,-0.02321 -0.259765,-0.0078 z m 2.802734,9.048828 c 11.14305,6.295987 22.18083,12.778134 33.1875,19.308597 -16.97795,-2.150907 -34.00786,-4.14339 -50.957577,-6.35373 -0.171711,-0.22912 0.806304,-0.817707 1.083371,-1.187139 4.703499,-4.425046 9.479527,-8.789944 14.303896,-13.08804 0.79427,0.440104 1.58854,0.880208 2.38281,1.320312 z M 84.242188,102.26367 c 15.057109,1.57794 30.105762,3.4271 45.144812,5.2351 6.00458,0.73685 12.01351,1.49299 17.99191,2.33717 1.40696,6.87081 2.63388,13.75061 3.83593,20.6582 -5.79715,-6.99553 -11.38507,-14.1588 -17.28125,-21.07226 -1.09619,-0.77459 -2.37098,0.037 -3.51767,0.21903 -16.34302,4.28213 -32.615126,8.82215 -48.880778,13.39169 -1.942965,0.58397 -3.932836,1.07568 -5.818044,1.81316 -1.325251,0.83453 -1.303708,2.58514 -1.522211,3.92335 -1.168073,10.38322 -1.855667,20.81428 -2.78968,31.22067 -0.665945,7.92703 -1.334181,15.85405 -2.102473,23.77194 -6.364412,-5.95968 -12.6369,-12.01698 -18.832031,-18.15234 7.573701,-17.34226 15.407271,-34.57063 23.24915,-51.79308 1.840232,-4.02635 3.696371,-8.04472 5.588741,-12.04677 1.644531,0.16471 3.289062,0.32943 4.933594,0.49414 z m -20.03125,16.67383 c -6.082616,13.37584 -12.087991,26.78985 -18.285157,40.11133 -2.897071,-6.65107 -5.982145,-13.27716 -8.662109,-19.96485 7.699212,-7.13253 15.384287,-14.29652 23.113001,-21.40343 2.519993,-2.32656 5.051247,-4.6409 7.576452,-6.9618 -1.247396,2.73958 -2.494792,5.47917 -3.742187,8.21875 z m 90.919922,-5.57617 c 6.26672,3.63469 12.47161,7.37246 18.70312,11.0664 -1.89879,8.94257 -3.77918,17.889 -5.73046,26.82032 -2.71779,-3.03316 -5.35909,-6.15981 -7.74153,-9.45715 -0.51904,-1.63253 -0.72801,-3.34669 -1.1298,-5.01082 -1.62721,-7.87986 -3.19811,-15.78199 -4.59547,-23.69805 0.16471,0.0931 0.32943,0.1862 0.49414,0.2793 z m -21.81445,5.65429 c 6.77837,8.189 13.50443,16.42622 20.09961,24.76172 0.50147,1.07066 0.50848,2.29425 0.82691,3.42507 1.46624,7.29198 2.74087,14.6042 4.11254,21.91282 -4.68555,6.95573 -9.3711,13.91146 -14.05664,20.86719 -9.09046,4.61498 -18.13067,9.33062 -27.31055,13.76563 -5.73659,-2.07955 -11.48076,-4.31446 -17.227758,-6.45699 -7.957526,-2.99354 -15.908466,-6.01541 -23.852319,-9.05473 0.940898,-15.27472 2.219372,-30.52594 3.415187,-45.78213 0.330739,-4.07129 0.691338,-8.14005 1.059422,-12.20811 16.841698,-4.77271 33.714748,-9.42367 50.628908,-13.90625 0.80493,0.78944 1.53292,1.80374 2.30469,2.67578 z m 30.33203,37.36133 c 0.60264,0.74376 1.20435,1.48835 1.80664,2.23243 -0.61391,0.92374 -1.25313,1.8936 -1.85938,2.7832 -0.45015,-2.18442 -0.84148,-4.40631 -1.2539,-6.61914 0.43554,0.5345 0.87109,1.06901 1.30664,1.60351 z m -3.25391,23.72461 c 0.0864,0.54269 0.16889,1.03526 0.24024,1.56836 -1.42787,0.75859 -2.88388,1.46219 -4.34766,2.14844 1.23827,-1.8105 2.51245,-3.60748 3.82422,-5.33594 0.0944,0.53972 0.1888,1.07943 0.2832,1.61914 z m -98.292968,5.78321 c 10.006686,9.49681 19.98611,19.02242 29.914063,28.60156 -6.775264,0.81163 -13.561236,1.52945 -20.34375,2.27734 -5.621643,-12.57177 -11.233642,-25.14727 -16.833984,-37.72851 2.421224,2.2832 4.842448,4.5664 7.263671,6.84961 z m 97.269528,6.74023 c -1.05521,4.97574 -2.10365,9.95321 -3.20117,14.91992 -5.69727,0.72127 -11.40858,1.32221 -17.11719,1.94531 3.14131,-4.81604 6.40092,-9.55353 9.61915,-14.31835 1.05973,-0.70673 2.27013,-1.15721 3.37077,-1.80174 2.67468,-1.38189 5.33365,-2.79718 8.05891,-4.07717 -0.24349,1.11068 -0.48698,2.22135 -0.73047,3.33203 z m -69.009762,8.19727 c 6.279288,2.33444 12.555862,4.67787 18.810552,7.07812 -3.05353,1.66038 -6.15426,3.23163 -9.275396,4.75977 -4.936824,-4.50088 -9.787695,-9.09505 -14.609375,-13.71875 1.691407,0.62695 3.382813,1.2539 5.074219,1.88086 z m 46.230472,0.5332 c -1.74614,2.60657 -3.49443,5.21346 -5.35547,7.74023 -1.90079,-0.59588 -3.7571,-1.32566 -5.57227,-2.14453 3.63969,-1.92861 7.28176,-3.80536 10.96289,-5.65039 z m -17.45118,10.24023 c -1.13151,0.1237 -2.26302,0.2474 -3.39453,0.3711 0.66497,-0.26572 1.31872,-0.75592 1.99031,-0.88922 0.46807,0.17271 0.93615,0.34542 1.40422,0.51812 z" />
  </g>
</svg>
