<?xml version="1.0" encoding="UTF-8" standalone="no"?>
<!-- Created with Inkscape (http://www.inkscape.org/) -->

<svg
   width="210mm"
   height="297mm"
   viewBox="0 0 210 297"
   version="1.1"
   id="svg1"
   inkscape:version="1.4 (86a8ad7, 2024-10-11)"
   sodipodi:docname="deepseek.svg"
   inkscape:export-filename="deepseek.png"
   inkscape:export-xdpi="96"
   inkscape:export-ydpi="96"
   xmlns:inkscape="http://www.inkscape.org/namespaces/inkscape"
   xmlns:sodipodi="http://sodipodi.sourceforge.net/DTD/sodipodi-0.dtd"
   xmlns="http://www.w3.org/2000/svg"
   xmlns:svg="http://www.w3.org/2000/svg">
  <sodipodi:namedview
     id="namedview1"
     pagecolor="#ffffff"
     bordercolor="#000000"
     borderopacity="0.25"
     inkscape:showpageshadow="2"
     inkscape:pageopacity="0.0"
     inkscape:pagecheckerboard="0"
     inkscape:deskcolor="#d1d1d1"
     inkscape:document-units="mm"
     inkscape:zoom="0.6137977"
     inkscape:cx="397.52511"
     inkscape:cy="561.25984"
     inkscape:window-width="1440"
     inkscape:window-height="890"
     inkscape:window-x="-6"
     inkscape:window-y="-6"
     inkscape:window-maximized="1"
     inkscape:current-layer="layer1" />
  <defs
     id="defs1">
    <filter
       style="color-interpolation-filters:sRGB;"
       inkscape:label="Drop Shadow"
       id="filter2"
       x="-0.02439305"
       y="-0.033147102"
       width="1.0640318"
       height="1.0870111">
      <feFlood
         result="flood"
         in="SourceGraphic"
         flood-opacity="0.498039"
         flood-color="rgb(0,0,0)"
         id="feFlood1" />
      <feGaussianBlur
         result="blur"
         in="SourceGraphic"
         stdDeviation="2.000000"
         id="feGaussianBlur1" />
      <feOffset
         result="offset"
         in="blur"
         dx="3.000000"
         dy="3.000000"
         id="feOffset1" />
      <feComposite
         result="comp1"
         operator="in"
         in="flood"
         in2="offset"
         id="feComposite1" />
      <feComposite
         result="comp2"
         operator="over"
         in="SourceGraphic"
         in2="comp1"
         id="feComposite2" />
    </filter>
  </defs>
  <g
     inkscape:label="Deepseek_Icon"
     inkscape:groupmode="layer"
     id="layer1">
    <path
       style="fill:#ffffff;fill-opacity:1;stroke-width:0.725001"
       d="m 105.17852,129.74891 29.7431,6.46589 5.17272,18.96662 -0.43106,11.63861 h -12.50073 l -18.53556,-9.48331 -10.345425,-17.24238 z"
       id="path3"
       inkscape:label="Background_2" />
    <path
       style="fill:#ffffff;fill-opacity:1;stroke-width:0.725001"
       d="m 18.104499,130.61103 25.001452,-3.87954 24.57039,11.63861 31.467345,27.15675 11.638604,19.39768 15.08709,19.39767 -5.17272,7.32801 -29.312046,-9.05225 -12.931786,1.72424 -27.156748,1.29318 -13.793904,-12.50072 -15.518141,-25.43251 -5.172714,-21.55298 z"
       id="path2"
       inkscape:label="Background_1" />
    <path
       class="st0"
       d="m 201.32356,88.249378 c -2.08433,-1.021321 -2.98204,0.924978 -4.20081,1.913758 -0.41683,0.318917 -0.76883,0.733503 -1.12215,1.116196 -3.04649,3.253348 -6.60575,5.391176 -11.25582,5.135603 -6.7983,-0.383097 -12.60255,1.754811 -17.73363,6.954475 -1.0904,-6.411799 -4.71372,-10.240379 -10.22948,-12.696126 -2.8857,-1.276193 -5.80399,-2.5524 -7.82453,-5.327819 -1.41102,-1.977142 -1.79583,-4.178362 -2.50128,-6.347709 -0.4486,-1.30768 -0.89852,-2.647982 -2.40537,-2.871353 -1.63546,-0.254868 -2.27685,1.116199 -2.91826,2.265285 -2.56535,4.689537 -3.5594,9.85734 -3.46346,15.088869 0.22496,11.771463 5.19513,21.149493 15.07182,27.816873 1.12215,0.76566 1.41089,1.53073 1.05864,2.64796 -0.67356,2.29682 -1.47548,4.52955 -2.18053,6.82633 -0.4486,1.46772 -1.12349,1.78668 -2.69384,1.14809 -5.41957,-2.26423 -10.10178,-5.61419 -14.23853,-9.66512 -7.02274,-6.79481 -13.37218,-14.29127 -21.29263,-20.16108 -1.8599,-1.37178 -3.72005,-2.647279 -5.64426,-3.860115 -8.081245,-7.846937 1.05864,-14.291275 3.17485,-15.056295 2.21242,-0.797547 0.77016,-3.541482 -6.38172,-3.508929 -7.151243,0.03176 -13.692811,2.424252 -22.030382,5.614214 -1.218756,0.478646 -2.501557,0.829052 -3.816252,1.11621 C 71.128004,84.963528 63.271328,84.643883 55.061993,85.569643 39.605098,87.291886 27.259403,94.597184 18.184235,107.0703 7.2814642,122.06323 4.7161209,139.09737 7.8588173,156.86608 c 3.3030817,18.72488 12.8590017,34.22829 27.5462697,46.35093 15.232333,12.56798 32.773553,18.72488 52.783655,17.54463 12.153818,-0.70161 25.686368,-2.32832 40.950728,-15.24784 3.84775,1.91412 7.88856,2.67915 14.59093,3.25335 5.16284,0.47863 10.13354,-0.25487 13.98142,-1.05217 6.02881,-1.27618 5.6121,-6.85889 3.43158,-7.87949 -17.66932,-8.22996 -13.78954,-4.8807 -17.31666,-7.5924 8.97883,-10.62235 22.51179,-21.66032 27.80285,-57.4204 0.41684,-2.83878 0.0662,-4.62546 0,-6.92227 -0.0264,-1.40329 0.28848,-1.94526 1.89206,-2.10529 4.4251,-0.51052 8.72224,-1.72224 12.66672,-3.8916 11.44824,-6.25212 16.06561,-16.52401 17.15588,-28.837465 0.16012,-1.882255 -0.0264,-3.828595 -2.02015,-4.816633 z M 101.56052,199.06935 C 84.436263,185.60821 76.131123,181.17357 72.69955,181.36507 c -3.206744,0.19149 -2.629389,3.8601 -1.924337,6.25285 0.738399,2.36016 1.699906,3.98754 3.046492,6.06059 0.930278,1.37179 1.57168,3.413 -0.930276,4.94478 -5.515764,3.41336 -15.104239,-1.14875 -15.553498,-1.37177 -11.159094,-6.57179 -20.490848,-15.24887 -27.065118,-27.11487 -6.349441,-11.42098 -10.036938,-23.67 -10.646581,-36.74918 -0.160119,-3.15774 0.770159,-4.27498 3.912326,-4.84849 4.136756,-0.76565 8.401873,-0.92565 12.538631,-0.31971 17.477305,2.55239 32.356451,10.36782 44.830637,22.745 7.11907,7.0497 12.506349,15.47189 18.054391,23.70187 5.900323,8.74009 12.249753,17.06669 20.330863,23.89304 2.85396,2.39237 5.1307,4.21056 7.31136,5.55083 -6.57362,0.73351 -17.54123,0.89349 -25.04499,-5.04071 z m 8.20919,-52.79423 c 0,-1.40362 1.12216,-2.51982 2.53386,-2.51982 0.32024,0 0.60872,0.0635 0.86544,0.15866 0.35332,0.12839 0.67356,0.31972 0.93028,0.60608 0.44858,0.44714 0.7053,1.0847 0.7053,1.75481 0,1.40364 -1.12214,2.51982 -2.53278,2.51982 -1.41063,0 -2.50156,-1.1162 -2.50156,-2.51982 z m 25.49424,13.07918 c -1.63548,0.67011 -3.27094,1.24362 -4.84222,1.30768 -2.43724,0.12704 -5.09878,-0.8616 -6.5417,-2.07378 -2.24458,-1.88225 -3.84814,-2.93438 -4.52145,-6.22028 -0.28849,-1.40362 -0.13229,-3.57298 0.1323,-4.81662 0.57696,-2.67983 -0.0662,-4.4021 -1.95611,-5.96573 -1.53951,-1.2762 -3.4956,-1.62667 -5.64438,-1.62667 -0.80192,0 -1.53873,-0.3512 -2.08432,-0.63823 -0.89852,-0.44634 -1.63507,-1.56294 -0.93027,-2.93471 0.22496,-0.44609 1.31535,-1.53109 1.57167,-1.72226 2.91827,-1.65923 6.28538,-1.1166 9.39593,0.12704 2.88636,1.18025 5.0669,3.34963 8.20933,6.41178 3.20674,3.7001 3.78371,4.72175 5.61171,7.49648 1.44359,2.16936 2.75828,4.40207 3.65601,6.95447 0.5452,1.59515 -0.16012,2.90286 -2.05243,3.70044 z"
       id="path1-4"
       style="fill:#8092b8;stroke-width:3.50122;fill-opacity:1"
       inkscape:label="Inner_Logo" />
    <path
       class="st0"
       d="m 201.32357,90.366048 c -2.08433,-1.021321 -2.98205,0.924978 -4.20081,1.913758 -0.41683,0.318917 -0.76883,0.733503 -1.12215,1.116196 -3.04649,3.253348 -6.60575,5.391176 -11.25582,5.135603 -6.79831,-0.383097 -12.60255,1.754815 -17.73363,6.954485 -1.0904,-6.411809 -4.71372,-10.240389 -10.22948,-12.696136 -2.88571,-1.276193 -5.80399,-2.5524 -7.82453,-5.327819 -1.41102,-1.977142 -1.79583,-4.178362 -2.50128,-6.347709 -0.4486,-1.30768 -0.89852,-2.647982 -2.40537,-2.871353 -1.63546,-0.254868 -2.27685,1.116199 -2.91826,2.265285 -2.56535,4.689537 -3.5594,9.85734 -3.46346,15.088869 0.22496,11.771473 5.19513,21.149503 15.07182,27.816883 1.12215,0.76566 1.41089,1.53073 1.05864,2.64796 -0.67356,2.29682 -1.47548,4.52955 -2.18053,6.82633 -0.4486,1.46772 -1.12349,1.78668 -2.69384,1.14809 -5.41957,-2.26423 -10.10178,-5.61419 -14.23853,-9.66512 -7.02274,-6.79481 -13.37218,-14.29127 -21.29264,-20.16108 -1.8599,-1.37178 -3.72005,-2.64728 -5.64426,-3.86013 -8.081241,-7.846932 1.05864,-14.29127 3.17485,-15.05629 2.21242,-0.797547 0.77016,-3.541482 -6.38172,-3.508929 -7.151239,0.03176 -13.692807,2.424252 -22.030378,5.614214 -1.218756,0.478646 -2.501557,0.829052 -3.816252,1.11621 C 71.128008,87.080198 63.271332,86.760553 55.061997,87.686313 39.605102,89.408556 27.259407,96.713854 18.184239,109.18698 7.2814683,124.17991 4.7161252,141.21405 7.8588214,158.98276 c 3.3030816,18.72488 12.8590016,34.22829 27.5462696,46.35093 15.232333,12.56798 32.773553,18.72488 52.783655,17.54463 12.153814,-0.70161 25.686364,-2.32832 40.950724,-15.24784 3.84775,1.91412 7.88856,2.67915 14.59093,3.25335 5.16284,0.47863 10.13354,-0.25487 13.98142,-1.05217 6.02881,-1.27618 5.6121,-6.85889 3.43158,-7.87949 -17.66932,-8.22996 -13.78954,-4.8807 -17.31666,-7.5924 8.97883,-10.62235 22.51179,-21.66032 27.80285,-57.4204 0.41684,-2.83878 0.0662,-4.62546 0,-6.92227 -0.0264,-1.40329 0.28848,-1.94526 1.89206,-2.10529 4.4251,-0.51052 8.72224,-1.72224 12.66672,-3.8916 11.44824,-6.25212 16.06561,-16.52401 17.15588,-28.837475 0.16012,-1.882255 -0.0264,-3.828595 -2.02015,-4.816633 z M 101.56052,201.18603 C 84.436267,187.72489 76.131127,183.29025 72.699554,183.48175 c -3.206744,0.19149 -2.629389,3.8601 -1.924337,6.25285 0.738399,2.36016 1.699906,3.98754 3.046492,6.06059 0.930278,1.37179 1.57168,3.413 -0.930276,4.94478 -5.515764,3.41336 -15.104239,-1.14875 -15.553498,-1.37177 -11.159094,-6.57179 -20.490848,-15.24887 -27.065118,-27.11487 -6.349441,-11.42098 -10.036938,-23.67 -10.646581,-36.74918 -0.160119,-3.15774 0.770159,-4.27498 3.912326,-4.84849 4.136756,-0.76565 8.401873,-0.92565 12.538631,-0.31971 17.477305,2.55239 32.356451,10.36782 44.830637,22.745 7.11907,7.0497 12.506349,15.47189 18.054391,23.70187 5.900319,8.74009 12.249749,17.06669 20.330859,23.89304 2.85396,2.39237 5.1307,4.21056 7.31136,5.55083 -6.57362,0.73351 -17.54123,0.89349 -25.04499,-5.04071 z m 8.20919,-52.79423 c 0,-1.40362 1.12216,-2.51982 2.53386,-2.51982 0.32024,0 0.60872,0.0635 0.86544,0.15866 0.35332,0.12839 0.67356,0.31972 0.93028,0.60608 0.44858,0.44714 0.7053,1.0847 0.7053,1.75481 0,1.40364 -1.12214,2.51982 -2.53278,2.51982 -1.41063,0 -2.50156,-1.1162 -2.50156,-2.51982 z m 25.49425,13.07918 c -1.63548,0.67011 -3.27094,1.24362 -4.84222,1.30768 -2.43724,0.12704 -5.09878,-0.8616 -6.54171,-2.07378 -2.24458,-1.88225 -3.84814,-2.93438 -4.52145,-6.22028 -0.28848,-1.40362 -0.13229,-3.57298 0.1323,-4.81662 0.57696,-2.67983 -0.0662,-4.4021 -1.9561,-5.96573 -1.53952,-1.2762 -3.49561,-1.62667 -5.64439,-1.62667 -0.80192,0 -1.53873,-0.3512 -2.08432,-0.63823 -0.89852,-0.44634 -1.63507,-1.56294 -0.93027,-2.93471 0.22496,-0.44609 1.31535,-1.53109 1.57167,-1.72226 2.91827,-1.65923 6.28539,-1.1166 9.39594,0.12704 2.88636,1.18025 5.0669,3.34963 8.20933,6.41178 3.20674,3.7001 3.7837,4.72175 5.6117,7.49648 1.44359,2.16936 2.75829,4.40207 3.65601,6.95447 0.5452,1.59515 -0.16012,2.90286 -2.05243,3.70044 z"
       id="path1"
       style="fill:#314f8d;stroke-width:3.50122;fill-opacity:1;filter:url(#filter2)"
       inkscape:label="Logo" />
  </g>
</svg>
