<?xml version="1.0" encoding="UTF-8" standalone="no"?>
<!-- Created with Inkscape (http://www.inkscape.org/) -->

<svg
   width="210mm"
   height="297mm"
   viewBox="0 0 210 297"
   version="1.1"
   id="svg1"
   inkscape:version="1.4 (86a8ad7, 2024-10-11)"
   sodipodi:docname="ecovacs.svg"
   inkscape:export-filename="..\app\src\main\res\drawable-nodpi\ecovacs.png"
   inkscape:export-xdpi="96"
   inkscape:export-ydpi="96"
   xmlns:inkscape="http://www.inkscape.org/namespaces/inkscape"
   xmlns:sodipodi="http://sodipodi.sourceforge.net/DTD/sodipodi-0.dtd"
   xmlns="http://www.w3.org/2000/svg"
   xmlns:svg="http://www.w3.org/2000/svg">
  <sodipodi:namedview
     id="namedview1"
     pagecolor="#ffffff"
     bordercolor="#000000"
     borderopacity="0.25"
     inkscape:showpageshadow="2"
     inkscape:pageopacity="0.0"
     inkscape:pagecheckerboard="0"
     inkscape:deskcolor="#d1d1d1"
     inkscape:document-units="mm"
     inkscape:zoom="0.6137977"
     inkscape:cx="206.90856"
     inkscape:cy="569.40585"
     inkscape:window-width="1440"
     inkscape:window-height="890"
     inkscape:window-x="-6"
     inkscape:window-y="-6"
     inkscape:window-maximized="1"
     inkscape:current-layer="layer1"
     showgrid="false" />
  <defs
     id="defs1">
    <filter
       style="color-interpolation-filters:sRGB;"
       inkscape:label="Drop Shadow"
       id="filter7"
       x="-0.035256373"
       y="-0.026005613"
       width="1.092548"
       height="1.0628469">
      <feFlood
         result="flood"
         in="SourceGraphic"
         flood-opacity="0.498039"
         flood-color="rgb(0,0,0)"
         id="feFlood6" />
      <feGaussianBlur
         result="blur"
         in="SourceGraphic"
         stdDeviation="2.000000"
         id="feGaussianBlur6" />
      <feOffset
         result="offset"
         in="blur"
         dx="3.000000"
         dy="2.000000"
         id="feOffset6" />
      <feComposite
         result="comp1"
         operator="out"
         in="flood"
         in2="offset"
         id="feComposite6" />
      <feComposite
         result="comp2"
         operator="atop"
         in="comp1"
         in2="SourceGraphic"
         id="feComposite7" />
    </filter>
    <filter
       style="color-interpolation-filters:sRGB;"
       inkscape:label="Drop Shadow"
       id="filter9"
       x="-0.0233936"
       y="-0.0233936"
       width="1.0614082"
       height="1.0614082">
      <feFlood
         result="flood"
         in="SourceGraphic"
         flood-opacity="0.498039"
         flood-color="rgb(0,0,0)"
         id="feFlood7" />
      <feGaussianBlur
         result="blur"
         in="SourceGraphic"
         stdDeviation="2.000000"
         id="feGaussianBlur7" />
      <feOffset
         result="offset"
         in="blur"
         dx="3.000000"
         dy="3.000000"
         id="feOffset7" />
      <feComposite
         result="comp1"
         operator="in"
         in="flood"
         in2="offset"
         id="feComposite8" />
      <feComposite
         result="comp2"
         operator="over"
         in="SourceGraphic"
         in2="comp1"
         id="feComposite9" />
    </filter>
    <filter
       style="color-interpolation-filters:sRGB"
       inkscape:label="Drop Shadow"
       id="filter9-7"
       x="-0.0233936"
       y="-0.0233936"
       width="1.0614082"
       height="1.0614082">
      <feFlood
         result="flood"
         in="SourceGraphic"
         flood-opacity="0.498039"
         flood-color="rgb(0,0,0)"
         id="feFlood7-6" />
      <feGaussianBlur
         result="blur"
         in="SourceGraphic"
         stdDeviation="2.000000"
         id="feGaussianBlur7-1" />
      <feOffset
         result="offset"
         in="blur"
         dx="3.000000"
         dy="3.000000"
         id="feOffset7-8" />
      <feComposite
         result="comp1"
         operator="in"
         in="flood"
         in2="offset"
         id="feComposite8-9" />
      <feComposite
         result="comp2"
         operator="over"
         in="SourceGraphic"
         in2="comp1"
         id="feComposite9-2" />
    </filter>
    <filter
       style="color-interpolation-filters:sRGB;"
       inkscape:label="Drop Shadow"
       id="filter11"
       x="-0.0233936"
       y="-0.0233936"
       width="1.0614082"
       height="1.0614082">
      <feFlood
         result="flood"
         in="SourceGraphic"
         flood-opacity="0.498039"
         flood-color="rgb(0,0,0)"
         id="feFlood9" />
      <feGaussianBlur
         result="blur"
         in="SourceGraphic"
         stdDeviation="2.000000"
         id="feGaussianBlur9" />
      <feOffset
         result="offset"
         in="blur"
         dx="3.000000"
         dy="3.000000"
         id="feOffset9" />
      <feComposite
         result="comp1"
         operator="in"
         in="flood"
         in2="offset"
         id="feComposite10" />
      <feComposite
         result="comp2"
         operator="over"
         in="SourceGraphic"
         in2="comp1"
         id="feComposite11" />
    </filter>
    <filter
       style="color-interpolation-filters:sRGB;"
       inkscape:label="Drop Shadow"
       id="filter29"
       x="-0.024728303"
       y="-0.029011644"
       width="1.0700635"
       height="1.0821997">
      <feFlood
         result="flood"
         in="SourceGraphic"
         flood-opacity="0.498039"
         flood-color="rgb(0,0,0)"
         id="feFlood28" />
      <feGaussianBlur
         result="blur"
         in="SourceGraphic"
         stdDeviation="2.000000"
         id="feGaussianBlur28" />
      <feOffset
         result="offset"
         in="blur"
         dx="4.000000"
         dy="4.000000"
         id="feOffset28" />
      <feComposite
         result="comp1"
         operator="in"
         in="flood"
         in2="offset"
         id="feComposite28" />
      <feComposite
         result="comp2"
         operator="over"
         in="SourceGraphic"
         in2="comp1"
         id="feComposite29" />
    </filter>
  </defs>
  <g
     inkscape:label="Ecovacs_Home"
     inkscape:groupmode="layer"
     id="layer1">
    <path
       id="path1"
       style="fill:#5559a1;fill-opacity:1;stroke-width:1.94496"
       d="m 151.76534,61.556975 c -26.34788,0.16868 -52.696074,0.425704 -79.043176,0.616722 -1.401515,-0.151948 -2.519972,0.854659 -3.764871,1.313245 -9.375988,4.393711 -18.846351,8.782635 -27.079046,15.161302 -12.372023,9.599944 -21.87695,22.740226 -27.218812,37.438826 -4.7535047,12.93695 -6.3430478,27.06717 -4.171456,40.70621 2.474923,15.887 9.715426,31.01652 20.306727,43.00418 9.514557,10.76408 21.862041,19.23055 35.595617,23.50363 6.273764,1.95004 12.850848,2.83995 19.386079,2.97339 20.231868,0.89058 40.488528,0.61588 60.733468,0.71642 18.36374,0.005 36.73895,0.029 55.08555,-0.85582 0.74536,-0.11234 1.43138,-0.45538 2.04687,-0.87891 -2.69502,-6.13676 -7.15209,-11.23199 -10.77807,-16.80669 -5.57833,-8.04611 -11.26601,-16.01414 -16.93287,-23.998 -27.48597,-0.18205 -55.00474,0.64128 -82.45955,-1.03848 -6.836614,-0.53103 -13.863317,-1.64044 -19.871193,-5.14565 -7.755459,-4.8065 -13.628714,-12.32306 -17.140866,-20.68453 -4.200501,-10.48299 -3.476371,-22.93793 2.400095,-32.64771 3.434483,-5.75669 8.0122,-10.94498 13.703898,-14.54913 2.836088,-1.81733 6.036709,-2.99108 9.333084,-3.63885 6.414082,-1.36779 13.003823,-1.40357 19.526702,-1.75523 24.55501,-0.91517 49.13193,-0.91287 73.69644,-1.36429 0.49169,-0.0141 1.14557,0.15546 1.33915,-0.45295 9.09203,-12.894158 18.66016,-25.475148 26.91756,-38.936044 0.37255,-0.954885 -0.55412,-2.01523 -1.54606,-1.857316 -5.65976,-0.936156 -11.42936,-0.391552 -17.15469,-0.71418 -10.96944,-0.15237 -21.94039,-0.133476 -32.91058,-0.110145 z m -28.45313,60.437475 c -7.97695,0.21248 -16.0109,-0.29599 -23.835947,1.50586 -3.299662,0.67699 -6.704156,2.43282 -9.220705,4.93359 -1.911748,1.82575 -3.495102,3.99262 -4.6875,6.42579 -2.21781,4.47756 -2.94365,9.91815 -1.511719,14.80468 2.351763,8.48229 10.105828,15.03957 18.781851,16.25402 2.911,0.4189 5.85919,0.16071 8.78729,0.30314 17.90821,0.25457 35.81203,-0.37711 53.71818,-0.53336 3.66855,-0.0574 7.33711,-0.11482 11.00566,-0.17223 3.9866,-4.49771 8.52535,-8.80457 10.73203,-14.52918 1.86617,-4.92451 1.62329,-10.69587 -0.65781,-15.51575 -2.095,-4.44495 -5.65575,-8.20639 -10.03052,-10.37127 -3.45382,-1.75092 -7.37146,-2.10038 -11.16284,-2.49591 -5.56141,-0.45742 -11.17588,-0.41031 -16.76676,-0.59875 -8.10293,-0.0718 -16.20762,-0.0959 -24.31014,-0.0387 -0.28035,0.009 -0.56071,0.0187 -0.84107,0.028 z"
       inkscape:label="Logo_Shadow" />
    <path
       id="path1-8"
       style="fill:#2b3089;fill-opacity:1;stroke-width:1.94496;filter:url(#filter29)"
       d="m 150.17783,65.790309 c -26.34788,0.16868 -52.696069,0.425704 -79.043169,0.616722 -1.401515,-0.151948 -2.519972,0.854659 -3.764871,1.313245 -9.375988,4.393711 -18.846351,8.782635 -27.079046,15.161302 -12.372023,9.599944 -21.87695,22.740252 -27.218812,37.438852 -4.7535033,12.93695 -6.3430465,27.06717 -4.1714552,40.70621 2.4749222,15.887 9.7154252,31.01652 20.3067262,43.00418 9.514557,10.76408 21.862041,19.23055 35.595617,23.50363 6.273764,1.95004 12.850848,2.83995 19.386079,2.97339 20.231861,0.89058 40.488521,0.61588 60.733461,0.71642 18.36374,0.005 36.73895,0.029 55.08555,-0.85582 0.74536,-0.11234 1.43138,-0.45538 2.04687,-0.87891 -2.69502,-6.13676 -7.15209,-11.23199 -10.77807,-16.80669 -5.57833,-8.04611 -11.26601,-16.01414 -16.93287,-23.998 -27.48597,-0.18205 -55.00474,0.64128 -82.459543,-1.03848 -6.836614,-0.53103 -13.863317,-1.64044 -19.871193,-5.14565 -7.755459,-4.8065 -13.628714,-12.32306 -17.140866,-20.68453 -4.200501,-10.48299 -3.476371,-22.93793 2.400095,-32.64771 3.434483,-5.75669 8.0122,-10.94498 13.703898,-14.54913 2.836088,-1.81733 6.036709,-2.99108 9.333084,-3.63885 6.414082,-1.36779 13.003823,-1.40357 19.526703,-1.75523 24.555002,-0.91517 49.131922,-0.91287 73.696432,-1.36429 0.49169,-0.0141 1.14557,0.15546 1.33915,-0.45295 9.09203,-12.894184 18.66016,-25.475174 26.91756,-38.93607 0.37255,-0.954885 -0.55412,-2.01523 -1.54606,-1.857316 -5.65976,-0.936156 -11.42936,-0.391552 -17.15469,-0.71418 -10.96944,-0.15237 -21.94039,-0.133476 -32.91058,-0.110145 z M 121.7247,126.22781 c -7.97695,0.21248 -16.0109,-0.29599 -23.835942,1.50586 -3.29966,0.67699 -6.704154,2.43282 -9.220703,4.93359 -1.911748,1.82575 -3.495102,3.99262 -4.6875,6.42579 -2.21781,4.47756 -2.94365,9.91815 -1.511719,14.80468 2.351763,8.48229 10.105828,15.03957 18.781844,16.25402 2.911,0.4189 5.85919,0.16071 8.78729,0.30314 17.90821,0.25457 35.81203,-0.37711 53.71818,-0.53336 3.66855,-0.0574 7.33711,-0.11482 11.00566,-0.17223 3.9866,-4.49771 8.52535,-8.80457 10.73203,-14.52918 1.86617,-4.92451 1.62329,-10.69587 -0.65781,-15.51575 -2.095,-4.44495 -5.65575,-8.20639 -10.03052,-10.37127 -3.45382,-1.75092 -7.37146,-2.10038 -11.16284,-2.49591 -5.56141,-0.45742 -11.17588,-0.41031 -16.76676,-0.59875 -8.10293,-0.0718 -16.20762,-0.0959 -24.31014,-0.0387 -0.28035,0.009 -0.56071,0.0187 -0.84107,0.028 z"
       inkscape:label="Logo" />
  </g>
</svg>
