<?xml version="1.0" encoding="UTF-8" standalone="no"?>
<!-- Created with Inkscape (http://www.inkscape.org/) -->

<svg
   width="210mm"
   height="297mm"
   viewBox="0 0 210 297"
   version="1.1"
   id="svg1"
   inkscape:version="1.4 (86a8ad7, 2024-10-11)"
   sodipodi:docname="futubull.svg"
   inkscape:export-filename="futubull.png"
   inkscape:export-xdpi="96"
   inkscape:export-ydpi="96"
   xmlns:inkscape="http://www.inkscape.org/namespaces/inkscape"
   xmlns:sodipodi="http://sodipodi.sourceforge.net/DTD/sodipodi-0.dtd"
   xmlns="http://www.w3.org/2000/svg"
   xmlns:svg="http://www.w3.org/2000/svg">
  <sodipodi:namedview
     id="namedview1"
     pagecolor="#ffffff"
     bordercolor="#000000"
     borderopacity="0.25"
     inkscape:showpageshadow="2"
     inkscape:pageopacity="0.0"
     inkscape:pagecheckerboard="0"
     inkscape:deskcolor="#d1d1d1"
     inkscape:document-units="mm"
     inkscape:zoom="0.6137977"
     inkscape:cx="395.89591"
     inkscape:cy="574.29345"
     inkscape:window-width="1440"
     inkscape:window-height="890"
     inkscape:window-x="-6"
     inkscape:window-y="-6"
     inkscape:window-maximized="1"
     inkscape:current-layer="layer1"
     showgrid="false" />
  <defs
     id="defs1">
    <filter
       style="color-interpolation-filters:sRGB;"
       inkscape:label="Drop Shadow"
       id="filter11"
       x="-0.073258908"
       y="-0.073258908"
       width="1.1770424"
       height="1.1770424">
      <feFlood
         result="flood"
         in="SourceGraphic"
         flood-opacity="0.498039"
         flood-color="rgb(0,0,0)"
         id="feFlood10" />
      <feGaussianBlur
         result="blur"
         in="SourceGraphic"
         stdDeviation="1.000000"
         id="feGaussianBlur10" />
      <feOffset
         result="offset"
         in="blur"
         dx="1.000000"
         dy="1.000000"
         id="feOffset10" />
      <feComposite
         result="comp1"
         operator="in"
         in="flood"
         in2="offset"
         id="feComposite10" />
      <feComposite
         result="comp2"
         operator="over"
         in="SourceGraphic"
         in2="comp1"
         id="feComposite11" />
    </filter>
    <filter
       style="color-interpolation-filters:sRGB;"
       inkscape:label="Drop Shadow"
       id="filter15"
       x="-0.023775968"
       y="-0.023884532"
       width="1.0624119"
       height="1.052745">
      <feFlood
         result="flood"
         in="SourceGraphic"
         flood-opacity="0.498039"
         flood-color="rgb(0,0,0)"
         id="feFlood14" />
      <feGaussianBlur
         result="blur"
         in="SourceGraphic"
         stdDeviation="2.000000"
         id="feGaussianBlur14" />
      <feOffset
         result="offset"
         in="blur"
         dx="3.000000"
         dy="1.000000"
         id="feOffset14" />
      <feComposite
         result="comp1"
         operator="in"
         in="flood"
         in2="offset"
         id="feComposite14" />
      <feComposite
         result="comp2"
         operator="over"
         in="SourceGraphic"
         in2="comp1"
         id="feComposite15" />
    </filter>
    <filter
       style="color-interpolation-filters:sRGB;"
       inkscape:label="Drop Shadow"
       id="filter2"
       x="-0.023692242"
       y="-0.023692242"
       width="1.0621921"
       height="1.0621921">
      <feFlood
         result="flood"
         in="SourceGraphic"
         flood-opacity="0.498039"
         flood-color="rgb(0,0,0)"
         id="feFlood1" />
      <feGaussianBlur
         result="blur"
         in="SourceGraphic"
         stdDeviation="2.000000"
         id="feGaussianBlur1" />
      <feOffset
         result="offset"
         in="blur"
         dx="3.000000"
         dy="3.000000"
         id="feOffset1" />
      <feComposite
         result="comp1"
         operator="in"
         in="flood"
         in2="offset"
         id="feComposite1" />
      <feComposite
         result="comp2"
         operator="over"
         in="SourceGraphic"
         in2="comp1"
         id="feComposite2" />
    </filter>
  </defs>
  <g
     inkscape:label="Futu"
     inkscape:groupmode="layer"
     id="layer1">
    <circle
       style="display:inline;fill:#e68b72;fill-opacity:1;stroke-width:0.984828"
       id="path3-8"
       cx="105.00315"
       cy="155.27388"
       r="101.29898"
       inkscape:label="Shaodow_Background" />
    <circle
       style="fill:#de5833;fill-opacity:1;stroke-width:0.984828;filter:url(#filter2)"
       id="path3"
       cx="105.13988"
       cy="159.49202"
       r="101.29898"
       inkscape:label="Background" />
    <circle
       style="fill:#e88a70;fill-opacity:1;stroke-width:0.762718"
       id="path3-5"
       cx="105.13998"
       cy="158.978"
       r="78.452827"
       inkscape:label="Inner_Background" />
    <path
       style="fill:#cccccc;fill-opacity:1;stroke:none;stroke-width:0.240284"
       d="m 30.156004,153.80192 c 0,14.31456 -0.03438,28.64138 0.315682,42.93074 0.206697,8.43718 -0.303469,16.5169 6.104499,23.06256 6.55151,6.69229 14.77938,6.20638 23.375031,6.41696 14.822539,0.36313 29.684675,0.31569 44.532644,0.31569 0,-3.12224 -0.17178,-6.18533 -0.30777,-9.29099 -0.0572,-1.30593 0.36405,-3.21385 -0.34188,-4.37998 -0.92088,-1.52118 -3.40286,-2.32988 -4.796802,-3.38574 -2.850941,-2.15946 -5.303981,-4.80274 -7.048329,-7.93283 4.641396,1.33966 8.664951,4.88661 13.135541,6.76775 4.53916,1.91001 9.86877,1.67139 14.41703,-0.0608 7.41247,-2.82305 10.52657,-10.20108 14.18663,-16.63868 4.68354,-8.23774 9.38585,-16.4731 14.14264,-24.66916 5.4406,-9.37426 11.00065,-19.34765 3.46484,-29.47482 -3.71304,-4.98988 -10.80326,-7.82352 -16.09556,-10.84468 -11.14916,-6.36463 -22.28941,-12.76632 -33.31937,-19.33521 -4.866026,-2.89796 -14.175119,-5.98428 -16.542029,-11.469359 -1.577991,-3.656822 0.558945,-6.92553 2.861903,-9.611359 C 92.856962,80.818286 100.35958,73.367166 107.68764,72.105351 104.09411,70.59689 97.945363,71.955018 94.231725,72.68332 80.789152,75.319629 61.73604,85.220207 61.73604,100.93943 c 0,5.86514 2.714433,11.79947 7.506159,15.24097 2.116948,1.52043 4.473759,2.68129 6.727948,3.98175 0.769765,0.44408 2.125657,0.95716 2.293085,1.95589 0.200631,1.19681 -1.183232,2.82968 -1.742313,3.81092 -1.769332,3.10538 -3.575335,6.19187 -5.356454,9.29099 l -7.554109,13.13555 c -0.872587,1.52204 -1.840827,4.20275 -3.406001,5.11716 -1.985724,1.1601 -6.319689,0.32928 -8.582982,0.32928 H 30.156004 M 177.53018,112.79345 c 0,7.92127 -0.12861,15.15245 -2.66982,22.74689 -1.06233,3.17475 -2.88948,7.03802 -6.62117,7.62061 -4.27867,0.66798 -7.20961,-2.23446 -10.89286,-3.77606 0.85806,5.80995 2.64593,10.73311 0.61554,16.65968 -0.64159,1.87275 -4.73001,7.42841 -3.79288,9.12139 0.95562,1.72643 4.61018,2.64172 6.38113,3.08661 7.02312,1.76436 15.44487,-0.42952 19.8877,-6.44118 7.40359,-10.01798 6.40655,-26.95143 2.64535,-38.12506 -1.21593,-3.61224 -2.92082,-8.08188 -5.55299,-10.89288 m -80.094667,24.12456 c 15.490557,-2.23213 19.133337,21.9072 3.524177,24.15645 -15.534382,2.23846 -19.137951,-21.90656 -3.524177,-24.15645 z"
       id="path1-5"
       inkscape:label="Inner_Logo" />
    <path
       style="fill:#ffffff;fill-opacity:1;stroke:none;stroke-width:0.311327;filter:url(#filter15)"
       d="m 6.7047809,156.33982 c 0,18.54688 -0.044549,37.10965 0.4090191,55.62387 0.2678104,10.93177 -0.3931941,21.40038 7.909388,29.88136 8.488566,8.67097 19.149132,8.04139 30.286217,8.31423 19.205051,0.4705 38.461406,0.40903 57.699405,0.40903 0,-4.04538 -0.22257,-8.01412 -0.39876,-12.03801 -0.0741,-1.69205 0.47169,-4.16407 -0.44297,-5.67499 -1.19316,-1.97094 -4.408966,-3.01874 -6.21505,-4.38678 -3.693865,-2.79794 -6.872184,-6.22275 -9.132275,-10.2783 6.013696,1.73576 11.226879,6.33142 17.019265,8.76874 5.88125,2.47473 12.78664,2.16557 18.67966,-0.0788 9.60409,-3.65773 13.63891,-13.21719 18.38114,-21.55816 6.06829,-10.67336 12.16092,-21.34363 18.32412,-31.96297 7.04919,-12.14591 14.25315,-25.06808 4.48927,-38.18951 -4.81085,-6.46521 -13.99741,-10.13666 -20.85446,-14.05107 C 128.41317,112.87203 113.97913,104.57758 99.687967,96.066487 93.383239,92.311701 81.32177,88.31286 78.255047,81.206035 76.210498,76.468017 78.979253,72.232866 81.963115,68.75293 87.944241,61.777422 97.665122,52.123264 107.15985,50.488376 102.50383,48.533914 94.537106,50.293593 89.725474,51.237229 72.308397,54.653004 47.621941,67.480839 47.621941,87.84769 c 0,7.599256 3.516996,15.28818 9.725469,19.74721 2.742856,1.96997 5.796495,3.47405 8.717169,5.15901 0.997359,0.57538 2.754141,1.24016 2.971072,2.53418 0.25995,1.55067 -1.533073,3.66632 -2.257456,4.93768 -2.292461,4.02353 -4.632437,8.02259 -6.940172,12.03801 l -9.787596,17.01928 c -1.13058,1.97205 -2.385096,5.44536 -4.413037,6.63013 -2.572834,1.5031 -8.188203,0.42663 -11.120672,0.42663 H 6.7047809 M 197.65241,103.20657 c 0,10.26331 -0.16663,19.6325 -3.4592,29.47235 -1.37642,4.11342 -3.74379,9.11892 -8.5788,9.87376 -5.54374,0.86548 -9.34126,-2.89511 -14.11352,-4.89251 1.11176,7.52776 3.42825,13.90653 0.79754,21.58537 -0.83128,2.42646 -6.1285,9.62474 -4.91431,11.81828 1.23818,2.23687 5.97327,3.42278 8.26781,3.99921 9.09962,2.28602 20.01139,-0.55651 25.76781,-8.34562 9.59257,-12.97995 8.30074,-34.92003 3.42749,-49.39731 -1.57544,-4.68026 -3.78441,-10.47142 -7.19482,-14.11353 M 93.876511,134.46393 c 20.070589,-2.8921 24.790419,28.3844 4.566144,31.29867 -20.127351,2.9003 -24.796371,-28.38357 -4.566144,-31.29867 z"
       id="path1"
       inkscape:label="Logo"
       transform="matrix(0.77180424,0,0,0.77180424,27.023286,34.36343)" />
    <circle
       style="display:inline;fill:#fedf53;fill-opacity:1;stroke-width:0.725001;filter:url(#filter11)"
       id="path2-6"
       cx="95.583252"
       cy="148.80817"
       r="16.38026"
       inkscape:label="Eye_Shadow"
       transform="matrix(0.77180424,0,0,0.77180424,24.906618,34.36343)" />
    <circle
       style="display:inline;fill:#fdd20a;fill-opacity:1;stroke-width:0.559559"
       id="path2"
       cx="98.239365"
       cy="147.9312"
       r="12.642355"
       inkscape:label="Eye" />
  </g>
</svg>
