<?xml version="1.0" encoding="UTF-8" standalone="no"?>
<!-- Created with Inkscape (http://www.inkscape.org/) -->

<svg
   width="210mm"
   height="297mm"
   viewBox="0 0 210 297"
   version="1.1"
   id="svg1"
   inkscape:version="1.3.2 (091e20e, 2023-11-25)"
   sodipodi:docname="futubull.svg"
   inkscape:export-filename="../app/src/main/res/drawable-nodpi/futubull.png"
   inkscape:export-xdpi="96"
   inkscape:export-ydpi="96"
   xmlns:inkscape="http://www.inkscape.org/namespaces/inkscape"
   xmlns:sodipodi="http://sodipodi.sourceforge.net/DTD/sodipodi-0.dtd"
   xmlns="http://www.w3.org/2000/svg"
   xmlns:svg="http://www.w3.org/2000/svg">
  <sodipodi:namedview
     id="namedview1"
     pagecolor="#ffffff"
     bordercolor="#000000"
     borderopacity="0.25"
     inkscape:showpageshadow="2"
     inkscape:pageopacity="0.0"
     inkscape:pagecheckerboard="0"
     inkscape:deskcolor="#d1d1d1"
     inkscape:document-units="mm"
     inkscape:zoom="0.6137977"
     inkscape:cx="395.08131"
     inkscape:cy="574.29345"
     inkscape:window-width="2560"
     inkscape:window-height="1416"
     inkscape:window-x="0"
     inkscape:window-y="24"
     inkscape:window-maximized="0"
     inkscape:current-layer="layer1"
     showgrid="false" />
  <defs
     id="defs1">
    <filter
       style="color-interpolation-filters:sRGB;"
       inkscape:label="Drop Shadow"
       id="filter11"
       x="-0.073258908"
       y="-0.073258908"
       width="1.1770424"
       height="1.1770424">
      <feFlood
         result="flood"
         in="SourceGraphic"
         flood-opacity="0.498039"
         flood-color="rgb(0,0,0)"
         id="feFlood10" />
      <feGaussianBlur
         result="blur"
         in="SourceGraphic"
         stdDeviation="1.000000"
         id="feGaussianBlur10" />
      <feOffset
         result="offset"
         in="blur"
         dx="1.000000"
         dy="1.000000"
         id="feOffset10" />
      <feComposite
         result="comp1"
         operator="in"
         in="flood"
         in2="offset"
         id="feComposite10" />
      <feComposite
         result="comp2"
         operator="over"
         in="SourceGraphic"
         in2="comp1"
         id="feComposite11" />
    </filter>
    <filter
       style="color-interpolation-filters:sRGB;"
       inkscape:label="Drop Shadow"
       id="filter15"
       x="-0.023775968"
       y="-0.023884532"
       width="1.0624119"
       height="1.052745">
      <feFlood
         result="flood"
         in="SourceGraphic"
         flood-opacity="0.498039"
         flood-color="rgb(0,0,0)"
         id="feFlood14" />
      <feGaussianBlur
         result="blur"
         in="SourceGraphic"
         stdDeviation="2.000000"
         id="feGaussianBlur14" />
      <feOffset
         result="offset"
         in="blur"
         dx="3.000000"
         dy="1.000000"
         id="feOffset14" />
      <feComposite
         result="comp1"
         operator="in"
         in="flood"
         in2="offset"
         id="feComposite14" />
      <feComposite
         result="comp2"
         operator="over"
         in="SourceGraphic"
         in2="comp1"
         id="feComposite15" />
    </filter>
    <filter
       style="color-interpolation-filters:sRGB;"
       inkscape:label="Drop Shadow"
       id="filter2"
       x="-0.023692242"
       y="-0.023692242"
       width="1.0621921"
       height="1.0621921">
      <feFlood
         result="flood"
         in="SourceGraphic"
         flood-opacity="0.498039"
         flood-color="rgb(0,0,0)"
         id="feFlood1" />
      <feGaussianBlur
         result="blur"
         in="SourceGraphic"
         stdDeviation="2.000000"
         id="feGaussianBlur1" />
      <feOffset
         result="offset"
         in="blur"
         dx="3.000000"
         dy="3.000000"
         id="feOffset1" />
      <feComposite
         result="comp1"
         operator="in"
         in="flood"
         in2="offset"
         id="feComposite1" />
      <feComposite
         result="comp2"
         operator="over"
         in="SourceGraphic"
         in2="comp1"
         id="feComposite2" />
    </filter>
    <filter
       style="color-interpolation-filters:sRGB"
       inkscape:label="Drop Shadow"
       id="filter15-0"
       x="-0.023775968"
       y="-0.023884532"
       width="1.0624119"
       height="1.052745">
      <feFlood
         result="flood"
         in="SourceGraphic"
         flood-opacity="0.498039"
         flood-color="rgb(0,0,0)"
         id="feFlood14-5" />
      <feGaussianBlur
         result="blur"
         in="SourceGraphic"
         stdDeviation="2.000000"
         id="feGaussianBlur14-2" />
      <feOffset
         result="offset"
         in="blur"
         dx="3.000000"
         dy="1.000000"
         id="feOffset14-2" />
      <feComposite
         result="comp1"
         operator="in"
         in="flood"
         in2="offset"
         id="feComposite14-7" />
      <feComposite
         result="comp2"
         operator="over"
         in="SourceGraphic"
         in2="comp1"
         id="feComposite15-3" />
    </filter>
    <filter
       style="color-interpolation-filters:sRGB;"
       inkscape:label="Drop Shadow"
       id="filter4"
       x="-0.034211891"
       y="-0.03460921"
       width="1.0898062"
       height="1.0908492">
      <feFlood
         result="flood"
         in="SourceGraphic"
         flood-opacity="0.498039"
         flood-color="rgb(0,0,0)"
         id="feFlood2" />
      <feGaussianBlur
         result="blur"
         in="SourceGraphic"
         stdDeviation="2.000000"
         id="feGaussianBlur2" />
      <feOffset
         result="offset"
         in="blur"
         dx="3.000000"
         dy="3.000000"
         id="feOffset2" />
      <feComposite
         result="comp1"
         operator="in"
         in="flood"
         in2="offset"
         id="feComposite3" />
      <feComposite
         result="comp2"
         operator="over"
         in="SourceGraphic"
         in2="comp1"
         id="feComposite4" />
    </filter>
  </defs>
  <g
     inkscape:label="Futu"
     inkscape:groupmode="layer"
     id="layer1">
    <circle
       style="display:inline;fill:#e68b72;fill-opacity:1;stroke-width:0.984828"
       id="path3-8"
       cx="105.00315"
       cy="155.27388"
       r="101.29898"
       inkscape:label="Shaodow_Background"
       sodipodi:insensitive="true" />
    <circle
       style="display:inline;fill:#de5833;fill-opacity:1;stroke-width:0.984828;filter:url(#filter2)"
       id="path3"
       cx="105.13988"
       cy="159.49202"
       r="101.29898"
       inkscape:label="Background"
       sodipodi:insensitive="true" />
    <circle
       style="display:inline;fill:#e88a70;fill-opacity:1;stroke-width:0.762718"
       id="path3-5"
       cx="105.13998"
       cy="158.978"
       r="78.452827"
       inkscape:label="Inner_Background"
       sodipodi:insensitive="true" />
    <path
       id="path3-5-6-5"
       style="display:inline;fill:#b3b3b3;fill-opacity:1;stroke-width:0.762718"
       inkscape:label="Inner_Logo"
       d="m 85.675206,94.080412 c -3.0051,0.0936 -6.27742,0.79486 -8.59844,1.25005 -13.44255,2.6363 -32.49569,12.536958 -32.49569,28.256158 0,5.86512 2.7148,11.79943 7.50652,15.24093 2.11695,1.52043 4.47357,2.68121 6.72775,3.98167 0.76976,0.44408 2.12546,0.95722 2.29289,1.95595 0.20063,1.19681 -1.18294,2.8299 -1.74202,3.81114 -1.76932,3.10537 -3.57566,6.1918 -5.35678,9.2909 l -7.55406,13.13564 c -0.87259,1.52203 -1.84082,4.20259 -3.40599,5.117 -1.98573,1.1601 -6.31965,0.32918 -8.58294,0.32918 h -5.95312 a 78.452827,78.452827 0 0 0 54.39047,56.31232 c -0.36679,-0.21014 -0.72651,-0.41969 -1.02112,-0.64285 -2.85094,-2.15946 -5.30432,-4.80277 -7.04867,-7.93285 4.64139,1.33967 8.66506,4.8864 13.13564,6.76754 4.53916,1.91 9.86896,1.67126 14.417204,-0.061 7.41247,-2.82304 10.52667,-10.20067 14.18673,-16.63826 4.68352,-8.23773 9.38552,-16.47325 14.14229,-24.66929 5.44059,-9.37424 11.0007,-19.34754 3.46491,-29.47469 -3.71303,-4.98986 -10.80285,-7.82366 -16.09514,-10.84482 -11.14914,-6.36461 -22.289464,-12.76637 -33.319424,-19.33525 -4.866,-2.89796 -14.17523,-5.98452 -16.54214,-11.46958 -1.57799,-3.65682 0.55888,-6.92549 2.86184,-9.6113 4.61625,-5.38372 12.11882,-12.834488 19.44688,-14.096298 -1.34757,-0.56568 -3.05452,-0.72849 -4.85759,-0.67231 z m 74.700354,41.360268 c 0,7.92124 -0.1289,15.15251 -2.67012,22.74693 -1.06232,3.17473 -2.88911,7.03813 -6.62078,7.62072 -4.27868,0.66798 -7.20963,-2.2344 -10.89288,-3.776 0.85806,5.80995 2.64586,10.7329 0.61547,16.65945 -0.64158,1.87275 -4.73017,7.42843 -3.79305,9.12141 0.95563,1.72643 4.61006,2.64174 6.381,3.08663 7.02311,1.76436 15.44486,-0.42981 19.88768,-6.44146 7.40357,-10.01796 6.4065,-26.9512 2.64531,-38.12481 -1.21592,-3.61224 -2.92047,-8.08189 -5.55263,-10.89287 z m -78.677374,23.9913 c 14.28211,-0.61133 17.22822,22.11052 2.10685,24.28947 -15.53434,2.23847 -19.13808,-21.90627 -3.52433,-24.15615 0.48408,-0.0697 0.95677,-0.1136 1.41748,-0.13332 z"
       sodipodi:insensitive="true" />
    <path
       id="path3-5-6"
       style="display:inline;fill:#ffffff;fill-opacity:1;stroke-width:0.762718;filter:url(#filter4)"
       inkscape:label="Logo"
       d="m 86.314868,95.61578 c -3.0051,0.09362 -6.27742,0.794866 -8.59844,1.250053 -13.44255,2.6363 -32.49569,12.536957 -32.49569,28.256157 0,5.86512 2.7148,11.79943 7.50652,15.24093 2.11695,1.52043 4.47357,2.68121 6.72775,3.98167 0.76976,0.44408 2.12546,0.95722 2.29289,1.95595 0.20063,1.19681 -1.18294,2.8299 -1.74202,3.81114 -1.76932,3.10537 -3.57566,6.1918 -5.35678,9.2909 l -7.55406,13.13564 c -0.87259,1.52203 -1.84082,4.20259 -3.40599,5.117 -1.98573,1.1601 -6.31965,0.32918 -8.58294,0.32918 h -5.95312 a 78.452827,78.452827 0 0 0 54.39047,56.31232 c -0.36679,-0.21014 -0.72651,-0.41969 -1.02112,-0.64285 -2.85094,-2.15946 -5.30432,-4.80277 -7.04867,-7.93285 4.64139,1.33967 8.66506,4.8864 13.13564,6.76754 4.53916,1.91 9.86896,1.67126 14.417202,-0.061 7.41247,-2.82304 10.52667,-10.20067 14.18673,-16.63826 4.68352,-8.23773 9.38552,-16.47325 14.14229,-24.66929 5.44059,-9.37424 11.0007,-19.34754 3.46491,-29.47469 -3.71303,-4.98986 -10.80285,-7.82366 -16.09514,-10.84482 -11.14914,-6.36461 -22.289462,-12.76637 -33.319422,-19.33525 -4.866,-2.89796 -14.17523,-5.98452 -16.54214,-11.46958 -1.57799,-3.65682 0.55888,-6.92549 2.86184,-9.6113 4.61625,-5.38372 12.11882,-12.834489 19.44688,-14.096299 -1.34757,-0.565673 -3.05452,-0.728484 -4.85759,-0.672311 z m 74.700352,41.36027 c 0,7.92124 -0.1289,15.15251 -2.67012,22.74693 -1.06232,3.17473 -2.88911,7.03813 -6.62078,7.62072 -4.27868,0.66798 -7.20963,-2.2344 -10.89288,-3.776 0.85806,5.80995 2.64586,10.7329 0.61547,16.65945 -0.64158,1.87275 -4.73017,7.42843 -3.79305,9.12141 0.95563,1.72643 4.61006,2.64174 6.381,3.08663 7.02311,1.76436 15.44486,-0.42981 19.88768,-6.44146 7.40357,-10.01796 6.4065,-26.9512 2.64531,-38.12481 -1.21592,-3.61224 -2.92047,-8.08189 -5.55263,-10.89287 z m -78.677372,23.9913 c 14.28211,-0.61133 17.228215,22.11052 2.10685,24.28947 -15.53434,2.23847 -19.13808,-21.90627 -3.52433,-24.15615 0.48408,-0.0697 0.95677,-0.1136 1.41748,-0.13332 z"
       sodipodi:insensitive="true" />
    <circle
       style="display:inline;fill:#fedf53;fill-opacity:1;stroke-width:0.725001;filter:url(#filter11)"
       id="path2-6"
       cx="95.583252"
       cy="148.80817"
       r="16.38026"
       inkscape:label="Eye_Shadow"
       transform="matrix(0.77180424,0,0,0.77180424,9.5607753,59.763446)" />
    <circle
       style="display:inline;fill:#fdd20a;fill-opacity:1;stroke-width:0.559559"
       id="path2"
       cx="82.893517"
       cy="173.33086"
       r="12.642355"
       inkscape:label="Eye" />
  </g>
</svg>
