<?xml version="1.0" encoding="UTF-8" standalone="no"?>
<!-- Created with Inkscape (http://www.inkscape.org/) -->

<svg
   width="210mm"
   height="297mm"
   viewBox="0 0 210 297"
   version="1.1"
   id="svg1"
   inkscape:version="1.3.2 (091e20e, 2023-11-25)"
   sodipodi:docname="futubull.svg"
   inkscape:export-filename="../app/src/main/res/drawable-nodpi/futubull.png"
   inkscape:export-xdpi="96"
   inkscape:export-ydpi="96"
   xmlns:inkscape="http://www.inkscape.org/namespaces/inkscape"
   xmlns:sodipodi="http://sodipodi.sourceforge.net/DTD/sodipodi-0.dtd"
   xmlns="http://www.w3.org/2000/svg"
   xmlns:svg="http://www.w3.org/2000/svg">
  <sodipodi:namedview
     id="namedview1"
     pagecolor="#ffffff"
     bordercolor="#000000"
     borderopacity="0.25"
     inkscape:showpageshadow="2"
     inkscape:pageopacity="0.0"
     inkscape:pagecheckerboard="0"
     inkscape:deskcolor="#d1d1d1"
     inkscape:document-units="mm"
     inkscape:zoom="0.34609517"
     inkscape:cx="1755.2975"
     inkscape:cy="778.68755"
     inkscape:window-width="2560"
     inkscape:window-height="1416"
     inkscape:window-x="0"
     inkscape:window-y="24"
     inkscape:window-maximized="0"
     inkscape:current-layer="layer1"
     showgrid="false" />
  <defs
     id="defs1">
    <filter
       style="color-interpolation-filters:sRGB;"
       inkscape:label="Drop Shadow"
       id="filter11"
       x="-0.073258908"
       y="-0.073258908"
       width="1.1770424"
       height="1.1770424">
      <feFlood
         result="flood"
         in="SourceGraphic"
         flood-opacity="0.498039"
         flood-color="rgb(0,0,0)"
         id="feFlood10" />
      <feGaussianBlur
         result="blur"
         in="SourceGraphic"
         stdDeviation="1.000000"
         id="feGaussianBlur10" />
      <feOffset
         result="offset"
         in="blur"
         dx="1.000000"
         dy="1.000000"
         id="feOffset10" />
      <feComposite
         result="comp1"
         operator="in"
         in="flood"
         in2="offset"
         id="feComposite10" />
      <feComposite
         result="comp2"
         operator="over"
         in="SourceGraphic"
         in2="comp1"
         id="feComposite11" />
    </filter>
    <filter
       style="color-interpolation-filters:sRGB;"
       inkscape:label="Drop Shadow"
       id="filter15"
       x="-0.023775968"
       y="-0.023884532"
       width="1.0624119"
       height="1.052745">
      <feFlood
         result="flood"
         in="SourceGraphic"
         flood-opacity="0.498039"
         flood-color="rgb(0,0,0)"
         id="feFlood14" />
      <feGaussianBlur
         result="blur"
         in="SourceGraphic"
         stdDeviation="2.000000"
         id="feGaussianBlur14" />
      <feOffset
         result="offset"
         in="blur"
         dx="3.000000"
         dy="1.000000"
         id="feOffset14" />
      <feComposite
         result="comp1"
         operator="in"
         in="flood"
         in2="offset"
         id="feComposite14" />
      <feComposite
         result="comp2"
         operator="over"
         in="SourceGraphic"
         in2="comp1"
         id="feComposite15" />
    </filter>
    <filter
       style="color-interpolation-filters:sRGB;"
       inkscape:label="Drop Shadow"
       id="filter2"
       x="-0.023692242"
       y="-0.023692242"
       width="1.0621921"
       height="1.0621921">
      <feFlood
         result="flood"
         in="SourceGraphic"
         flood-opacity="0.498039"
         flood-color="rgb(0,0,0)"
         id="feFlood1" />
      <feGaussianBlur
         result="blur"
         in="SourceGraphic"
         stdDeviation="2.000000"
         id="feGaussianBlur1" />
      <feOffset
         result="offset"
         in="blur"
         dx="3.000000"
         dy="3.000000"
         id="feOffset1" />
      <feComposite
         result="comp1"
         operator="in"
         in="flood"
         in2="offset"
         id="feComposite1" />
      <feComposite
         result="comp2"
         operator="over"
         in="SourceGraphic"
         in2="comp1"
         id="feComposite2" />
    </filter>
    <filter
       style="color-interpolation-filters:sRGB"
       inkscape:label="Drop Shadow"
       id="filter15-0"
       x="-0.023775968"
       y="-0.023884532"
       width="1.0624119"
       height="1.052745">
      <feFlood
         result="flood"
         in="SourceGraphic"
         flood-opacity="0.498039"
         flood-color="rgb(0,0,0)"
         id="feFlood14-5" />
      <feGaussianBlur
         result="blur"
         in="SourceGraphic"
         stdDeviation="2.000000"
         id="feGaussianBlur14-2" />
      <feOffset
         result="offset"
         in="blur"
         dx="3.000000"
         dy="1.000000"
         id="feOffset14-2" />
      <feComposite
         result="comp1"
         operator="in"
         in="flood"
         in2="offset"
         id="feComposite14-7" />
      <feComposite
         result="comp2"
         operator="over"
         in="SourceGraphic"
         in2="comp1"
         id="feComposite15-3" />
    </filter>
    <filter
       style="color-interpolation-filters:sRGB;"
       inkscape:label="Drop Shadow"
       id="filter4"
       x="-0.036750451"
       y="-0.034728906"
       width="1.0964699"
       height="1.0911634">
      <feFlood
         result="flood"
         in="SourceGraphic"
         flood-opacity="0.498039"
         flood-color="rgb(0,0,0)"
         id="feFlood2" />
      <feGaussianBlur
         result="blur"
         in="SourceGraphic"
         stdDeviation="2.000000"
         id="feGaussianBlur2" />
      <feOffset
         result="offset"
         in="blur"
         dx="3.000000"
         dy="3.000000"
         id="feOffset2" />
      <feComposite
         result="comp1"
         operator="in"
         in="flood"
         in2="offset"
         id="feComposite3" />
      <feComposite
         result="comp2"
         operator="over"
         in="SourceGraphic"
         in2="comp1"
         id="feComposite4" />
    </filter>
    <filter
       style="color-interpolation-filters:sRGB;"
       inkscape:label="Drop Shadow"
       id="filter19"
       x="-0.035307433"
       y="-0.039942104"
       width="1.092682"
       height="1.104848">
      <feFlood
         result="flood"
         in="SourceGraphic"
         flood-opacity="0.498039"
         flood-color="rgb(0,0,0)"
         id="feFlood18" />
      <feGaussianBlur
         result="blur"
         in="SourceGraphic"
         stdDeviation="2.000000"
         id="feGaussianBlur18" />
      <feOffset
         result="offset"
         in="blur"
         dx="3.000000"
         dy="3.000000"
         id="feOffset18" />
      <feComposite
         result="comp1"
         operator="in"
         in="flood"
         in2="offset"
         id="feComposite18" />
      <feComposite
         result="comp2"
         operator="over"
         in="SourceGraphic"
         in2="comp1"
         id="feComposite19" />
    </filter>
  </defs>
  <g
     inkscape:label="Futu"
     inkscape:groupmode="layer"
     id="layer1">
    <circle
       style="display:inline;fill:#e68b72;fill-opacity:1;stroke-width:0.984828"
       id="path3-8"
       cx="105.00315"
       cy="155.27388"
       r="101.29898"
       inkscape:label="Shaodow_Background"
       sodipodi:insensitive="true" />
    <circle
       style="display:inline;fill:#de5833;fill-opacity:1;stroke-width:0.984828;filter:url(#filter2)"
       id="path3"
       cx="105.13988"
       cy="159.49202"
       r="101.29898"
       inkscape:label="Background"
       sodipodi:insensitive="true" />
    <circle
       style="display:inline;fill:#e88a70;fill-opacity:1;stroke-width:0.762718"
       id="path3-5"
       cx="105.13998"
       cy="158.978"
       r="78.452827"
       inkscape:label="Inner_Background"
       sodipodi:insensitive="true" />
    <path
       id="rect18-9"
       style="fill:#cccccc;stroke-width:0.319426"
       d="m 97.47075,62.95632 c -1.645072,-0.637867 -3.710513,-0.777057 -5.884624,-0.649337 -3.623499,0.212843 -7.549188,1.167602 -10.335111,1.794064 -16.135095,3.628276 -38.799643,16.210113 -38.277207,35.180369 0.194938,7.078134 3.66838,14.149684 9.565502,18.143684 2.605307,1.76453 5.487897,3.08658 8.251509,4.58109 0.943715,0.51034 2.59705,1.08511 2.8323,2.28484 0.281905,1.43766 -1.333659,3.454 -1.975762,4.65677 -2.032006,3.80645 -4.109775,7.59152 -6.156267,11.39078 l -8.67942,16.1035 c -0.08613,0.15955 -0.194675,0.40594 -0.282044,0.58401 0.133272,-0.0227 0.232622,-0.0417 0.366727,-0.0645 -0.617399,0.98542 -1.185359,1.94271 -1.732193,2.88751 -0.0049,0.009 -0.01015,0.0168 -0.01598,0.0254 -19.127567,33.07275 4.0634,41.487 4.0634,41.487 l 50.037016,26.16165 c 5.463144,2.00628 11.731284,1.5316 17.052134,-0.66451 8.85169,-3.65324 12.36483,-12.66039 16.56788,-20.55105 5.37842,-10.0971 10.77935,-20.19243 16.24752,-30.24165 6.25423,-11.49385 12.63307,-23.71416 3.20214,-35.68534 -4.6468,-5.89847 -13.29737,-9.0834 -19.78464,-12.55351 -13.66655,-7.3104 -27.32344,-14.66557 -40.852941,-22.22645 -5.968705,-3.33558 -17.305992,-6.751141 -20.344729,-13.291968 -2.025892,-4.360661 0.444334,-8.376588 3.134323,-11.694426 5.392048,-6.650602 14.198388,-15.891873 23.00008,-17.658187 z m 85.64046,46.78247 c 0.2633,9.55946 0.34804,18.29064 -2.46635,27.5402 -1.17652,3.86662 -3.2527,8.58977 -7.73679,9.41689 -5.14139,0.94833 -8.77515,-2.45737 -13.2714,-4.19538 1.22862,6.98304 3.54994,12.86484 1.29661,20.08459 -0.71203,2.28139 -5.46192,9.12212 -4.27472,11.1341 1.21065,2.05172 5.65118,3.03504 7.80317,3.51312 8.53425,1.89584 18.62526,-1.03207 23.78714,-8.4347 8.60181,-12.33594 6.83559,-32.73836 1.92514,-46.09786 -1.58746,-4.31889 -3.79282,-9.6561 -7.0628,-12.96096 z m -87.064116,32.88836 c 10.925646,5.41493 11.597786,25.27992 -3.738526,27.9227 -18.672754,3.21773 -23.823957,-25.80109 -5.055758,-29.03522 0.581876,-0.1002 1.150648,-0.16859 1.705988,-0.2077 2.689935,-0.18942 5.06504,0.31746 7.088296,1.32022 z"
       inkscape:label="Inner_Logo" />
    <path
       id="rect18"
       style="fill:#ffffff;stroke-width:0.264583;filter:url(#filter19)"
       d="m 66.023755,89.261353 c -1.45234,0.163137 -3.02186,0.853654 -4.56871,1.781798 -2.57808,1.546884 -5.09324,3.754329 -6.89777,5.28337 -10.4512,8.855699 -22.25898,26.789509 -14.59498,40.513779 2.85958,5.12077 8.12316,8.97846 13.98468,9.64696 2.58958,0.29534 5.21288,0.15947 7.81503,0.19585 0.88858,0.0124 2.32277,-0.2002 2.95589,0.59015 0.75868,0.9471 0.34665,3.04719 0.33693,4.17649 -0.03073,3.57391 -0.10319,7.1497 -0.14728,10.72389 l -0.19068,15.15153 c -0.0017,0.15017 0.01286,0.37269 0.01705,0.53692 0.08915,-0.0678 0.15473,-0.11992 0.24443,-0.1881 -0.07503,0.96028 -0.12451,1.88093 -0.1633,2.78432 -2.5e-4,0.008 -0.0015,0.0162 -0.0016,0.0248 -1.3474,31.61736 18.90479,28.89332 18.90479,28.89332 h 46.769245 c 4.7801,-0.62399 9.19894,-3.37805 12.26178,-7.03213 5.09536,-6.07875 4.2173,-14.03858 4.27416,-21.44365 0.0728,-9.47576 0.16282,-18.95885 0.31988,-28.43392 0.17964,-10.83714 0.17193,-22.25535 -11.34505,-27.42313 -5.67465,-2.54629 -13.24678,-1.56416 -19.34042,-1.62161 -12.8373,-0.12103 -25.684705,-0.27864 -38.517545,-0.63614 -5.66137,-0.15772 -15.29415,1.68623 -20.03496,-1.94872 -3.16063,-2.42336 -2.88866,-6.31922 -2.18746,-9.787 1.40553,-6.95115 4.323,-17.114294 10.10584,-21.788787 z m 80.817295,1.472261 c 3.86205,6.915901 7.27516,13.292356 8.75916,21.161956 0.62035,3.28976 0.90905,7.55351 -2.06499,9.88157 -3.40999,2.6693 -7.38434,1.56399 -11.35176,2.01383 3.58184,4.65425 7.54311,8.08079 8.65993,14.24512 0.35291,1.94788 -0.50828,8.79213 1.13533,9.81336 1.67608,1.0414 5.31296,0.059 7.07606,-0.416 6.99202,-1.88371 13.27545,-7.90568 14.22342,-15.32051 1.57965,-12.35623 -7.54698,-26.65441 -16.27859,-34.576165 -2.82278,-2.560955 -6.48993,-5.632257 -10.15856,-6.803161 z M 95.555285,148.2887 c 10.097925,-0.21836 18.215205,14.10523 7.972135,21.93096 -12.471485,9.52826 -27.389645,-9.79553 -14.854395,-19.37246 0.38866,-0.29687 0.77991,-0.56535 1.17254,-0.80719 1.9018,-1.1714 3.83974,-1.71087 5.70972,-1.75131 z"
       inkscape:label="Logo"
       transform="matrix(1.0698698,0.55937707,-0.55937707,1.0698698,79.422633,-66.855235)" />
    <circle
       style="display:inline;fill:#fedf53;fill-opacity:1;stroke-width:0.725001;filter:url(#filter11)"
       id="path2-6"
       cx="95.583252"
       cy="148.80817"
       r="16.38026"
       inkscape:label="Eye_Shadow"
       transform="matrix(0.82573004,0.4317296,-0.4317296,0.82573004,76.102157,-6.6377431)" />
    <circle
       style="display:inline;fill:#fdd20a;fill-opacity:1;stroke-width:0.675544"
       id="path2"
       cx="152.89798"
       cy="95.964661"
       inkscape:label="Eye"
       r="15.262857"
       transform="rotate(27.602636)" />
  </g>
</svg>
