<?xml version="1.0" encoding="UTF-8" standalone="no"?>
<!-- Created with Inkscape (http://www.inkscape.org/) -->

<svg
   width="210mm"
   height="297mm"
   viewBox="0 0 210 297"
   version="1.1"
   id="svg1"
   inkscape:version="1.4 (86a8ad7, 2024-10-11)"
   sodipodi:docname="htinns.svg"
   inkscape:export-filename="htinns.png"
   inkscape:export-xdpi="96"
   inkscape:export-ydpi="96"
   xmlns:inkscape="http://www.inkscape.org/namespaces/inkscape"
   xmlns:sodipodi="http://sodipodi.sourceforge.net/DTD/sodipodi-0.dtd"
   xmlns="http://www.w3.org/2000/svg"
   xmlns:svg="http://www.w3.org/2000/svg">
  <sodipodi:namedview
     id="namedview1"
     pagecolor="#ffffff"
     bordercolor="#000000"
     borderopacity="0.25"
     inkscape:showpageshadow="2"
     inkscape:pageopacity="0.0"
     inkscape:pagecheckerboard="0"
     inkscape:deskcolor="#d1d1d1"
     inkscape:document-units="mm"
     inkscape:zoom="0.6137977"
     inkscape:cx="397.52511"
     inkscape:cy="561.25984"
     inkscape:window-width="1440"
     inkscape:window-height="890"
     inkscape:window-x="-6"
     inkscape:window-y="-6"
     inkscape:window-maximized="1"
     inkscape:current-layer="layer1"
     showgrid="false" />
  <defs
     id="defs1">
    <filter
       style="color-interpolation-filters:sRGB"
       inkscape:label="Drop Shadow"
       id="filter11"
       x="-0.0233936"
       y="-0.0233936"
       width="1.0614082"
       height="1.0614082">
      <feFlood
         result="flood"
         in="SourceGraphic"
         flood-opacity="0.498039"
         flood-color="rgb(0,0,0)"
         id="feFlood9" />
      <feGaussianBlur
         result="blur"
         in="SourceGraphic"
         stdDeviation="2.000000"
         id="feGaussianBlur9" />
      <feOffset
         result="offset"
         in="blur"
         dx="3.000000"
         dy="3.000000"
         id="feOffset9" />
      <feComposite
         result="comp1"
         operator="in"
         in="flood"
         in2="offset"
         id="feComposite10" />
      <feComposite
         result="comp2"
         operator="over"
         in="SourceGraphic"
         in2="comp1"
         id="feComposite11" />
    </filter>
    <filter
       style="color-interpolation-filters:sRGB;"
       inkscape:label="Drop Shadow"
       id="filter13"
       x="-0.036487826"
       y="-0.036152881"
       width="1.1033822"
       height="1.1024332">
      <feFlood
         result="flood"
         in="SourceGraphic"
         flood-opacity="0.498039"
         flood-color="rgb(0,0,0)"
         id="feFlood10" />
      <feGaussianBlur
         result="blur"
         in="SourceGraphic"
         stdDeviation="2.000000"
         id="feGaussianBlur10" />
      <feOffset
         result="offset"
         in="blur"
         dx="4.000000"
         dy="4.000000"
         id="feOffset10" />
      <feComposite
         result="comp1"
         operator="in"
         in="flood"
         in2="offset"
         id="feComposite12" />
      <feComposite
         result="comp2"
         operator="over"
         in="SourceGraphic"
         in2="comp1"
         id="feComposite13" />
    </filter>
  </defs>
  <g
     inkscape:label="Htinns_Logo"
     inkscape:groupmode="layer"
     id="layer1">
    <rect
       style="fill:#8184b9;fill-opacity:1;stroke-width:0.343437"
       id="rect5-2"
       width="200.31087"
       height="200.31087"
       x="3.8686242"
       y="40.813461"
       rx="12.980288"
       ry="12.980288"
       inkscape:label="Inner-Shadow" />
    <rect
       style="fill:#2b3089;fill-opacity:1;stroke-width:0.351792;filter:url(#filter11)"
       id="rect5"
       width="205.18433"
       height="205.18433"
       x="1.7764622"
       y="38.228912"
       rx="13.29609"
       ry="13.29609"
       inkscape:label="Background"
       transform="matrix(0.97624845,0,0,0.97624845,2.1343562,6.6298337)" />
    <rect
       style="fill:#5559a1;fill-opacity:1;stroke-width:0.266957"
       id="rect5-3"
       width="155.70383"
       height="155.70383"
       x="26.17215"
       y="64.704491"
       rx="10.089719"
       ry="10.089719"
       inkscape:label="Inner_Background" />
    <path
       id="path1-9"
       style="display:inline;fill:#cccccc;stroke:none;stroke-width:1.25003;filter:url(#filter13)"
       inkscape:label="Logo_Shadow"
       d="M 103.05078,76.5 C 88.743364,76.823763 74.359474,81.44521 63.148438,90.472656 51.261155,99.970341 43.34902,113.99972 40.502707,128.87548 c -3.409205,17.26876 -0.394057,35.8788 8.973172,50.85688 7.528285,12.19874 19.482048,21.49623 33.021077,26.12463 6.809129,2.39381 14.043942,3.38551 21.244424,3.39371 10.11133,0.11983 20.34366,-1.72601 29.48476,-6.14292 9.8875,-4.68297 18.70189,-11.7012 25.32155,-20.42455 7.26095,-9.66006 11.51454,-21.53151 12.05923,-33.60287 1.26899,-24.416 -11.23066,-49.06414 -31.74293,-62.389808 -10.47961,-6.830705 -23.01562,-10.4506 -35.52727,-10.19082 -0.0953,9e-5 -0.19063,1.79e-4 -0.28594,2.68e-4 z m 6.66211,9.435547 c 4.85018,0.0014 9.76441,0.90264 14.30272,2.575508 7.09151,2.533657 13.433,7.179122 18.50143,12.825905 8.06505,9.01238 13.18038,20.50597 15.42962,32.27727 1.40572,7.46223 1.68796,15.17886 0.55918,22.65502 -0.97265,6.50724 -3.00698,12.79014 -6.32615,18.49247 -3.81113,6.52218 -9.51953,12.09145 -16.2793,15.59961 -7.05162,3.71629 -15.13902,5.37006 -23.10489,5.55952 -3.88244,0.0839 -7.69714,-0.13376 -11.55331,-0.58687 -3.283428,-0.40732 -6.653296,-1.01146 -9.882753,-1.79577 -9.581094,-2.36882 -18.935123,-6.18136 -26.903227,-12.13019 -4.604491,-3.46035 -8.638109,-7.58466 -11.563486,-12.54697 -4.150191,-6.97439 -5.634783,-15.37195 -4.84489,-23.3356 0.89916,-9.51126 4.62199,-18.6977 9.749435,-26.7767 6.127815,-9.6357 14.34701,-17.9919 23.930891,-24.151679 5.04614,-3.210118 10.579592,-5.78856 16.435902,-7.282618 3.314718,-0.836774 6.986658,-1.295602 10.463658,-1.365724 0.36172,-0.0044 0.72345,-0.0089 1.08517,-0.01318 z M 77.802734,109.71289 c 0,22.26172 0,44.52344 0,66.78516 3.241234,-0.24592 6.793235,-0.83341 9.139256,-3.29859 2.514425,-2.63682 3.034451,-6.48634 2.911326,-9.9821 -0.06485,-4.92828 -1.251346,-9.78381 -0.88066,-14.69783 0.09073,-1.99886 0.927383,-4.46768 3.001549,-5.317 2.490145,-0.99884 5.248098,-1.1054 7.859665,-1.40531 4.84356,-0.38788 9.75197,-0.35705 14.54664,0.61848 1.61841,0.33557 3.27264,0.89614 4.48277,1.92024 1.40114,1.33532 1.39991,3.45061 1.54596,5.24958 0.31079,5.90745 -1.12054,11.81986 -0.20305,17.7305 0.40923,3.65884 2.82446,7.27165 6.47903,8.30945 1.92245,0.6196 3.95981,0.6643 5.95345,0.86086 -2.94508,-11.75602 -3.76223,-23.85163 -3.63987,-35.93589 0.11236,-10.56548 1.08495,-21.11903 3.65354,-31.38442 -3.22451,0.31915 -6.77745,0.56579 -9.33245,2.80349 -2.39095,2.05982 -2.95111,5.41589 -2.87402,8.41561 -0.0245,3.56583 0.67072,7.33794 -0.86775,10.70277 -1.09833,2.19618 -3.68666,2.88041 -5.88268,3.41476 -4.70833,1.06969 -9.55431,0.98888 -14.317852,0.64493 -2.751272,-0.33637 -5.691052,-0.3905 -8.151026,-1.80578 -1.783555,-1.38342 -1.954441,-3.84414 -1.984418,-5.907 -0.09396,-4.16992 0.612939,-8.55573 -1.087461,-12.50936 -1.377535,-3.11501 -4.648319,-5.02168 -7.946358,-5.41275 -0.799946,-0.1538 -1.603446,-0.28779 -2.405591,-0.43066 0,0.21029 0,0.42057 0,0.63086 z" />
    <path
       id="path1"
       style="fill:#ffffff;stroke:none;stroke-width:1.25003"
       inkscape:label="Logo"
       d="M 101.48242,74.933594 C 87.175123,75.25634 72.792415,79.881091 61.582031,88.90625 49.66814,98.424474 41.745885,112.49592 38.918414,127.40901 c -3.403627,17.33889 -0.319255,36.02119 9.149564,51.01485 7.634359,12.22966 19.725238,21.50073 33.378038,26.04257 6.672018,2.27881 13.739081,3.20908 20.773054,3.21974 10.20391,0.11037 20.53212,-1.77518 29.73249,-6.28847 9.68407,-4.62687 18.30625,-11.52176 24.84823,-20.03808 7.41091,-9.76431 11.74385,-21.8143 12.24967,-34.06217 1.19572,-24.47954 -11.4406,-49.160347 -32.09186,-62.390527 -10.41985,-6.702892 -22.84179,-10.232448 -35.23103,-9.974479 -0.0814,3.83e-4 -0.16276,7.66e-4 -0.24415,0.0011 z m 6.66797,9.433594 c 5.5841,0.0072 11.13966,1.18687 16.21576,3.325831 8.81273,3.690742 16.03599,10.370316 21.37792,18.206761 7.04178,10.40704 11.0206,22.80623 11.77546,35.3092 0.55475,9.6327 -0.85578,19.49665 -4.9707,28.30469 -3.06917,6.56606 -7.75717,12.38995 -13.74414,16.54492 -6.39591,4.51833 -14.11503,7.02672 -21.88086,7.90235 -9.96267,1.09408 -20.031923,-0.0686 -29.697784,-2.64638 -7.780018,-2.14308 -15.253033,-5.31734 -21.970006,-9.79076 -7.048912,-4.70164 -13.207691,-11.15254 -16.32464,-19.13544 -2.144809,-5.36197 -2.950932,-11.32618 -2.553572,-17.09525 0.782082,-11.72116 5.845097,-22.81956 12.652899,-32.21682 6.679532,-9.19215 15.275077,-17.010397 25.247854,-22.462584 7.119679,-3.865067 15.134289,-6.238719 23.270589,-6.238736 0.20041,-0.0026 0.40081,-0.0053 0.60122,-0.0078 z M 76.236328,108.14648 c 0,22.26172 0,44.52344 0,66.78516 3.241234,-0.24592 6.793235,-0.83341 9.139256,-3.29859 2.531895,-2.66108 3.04428,-6.54509 2.908777,-10.06798 -0.08165,-5.33317 -1.474061,-10.56385 -0.731627,-15.87952 0.330368,-1.90268 1.542357,-3.80591 3.515625,-4.28907 3.105033,-0.98327 6.397891,-1.07281 9.621091,-1.31445 3.75639,-0.17858 7.64257,-0.10546 11.33538,0.61873 1.98072,0.44047 4.4043,0.87392 5.77205,2.6176 1.00588,1.7663 1.03706,3.89293 1.09049,5.87535 0.0969,5.96332 -1.33086,12.02877 0.0324,17.95677 0.7495,3.36983 3.39575,6.35555 6.83019,7.09561 1.73946,0.43696 3.54055,0.50008 5.31836,0.67383 -2.87486,-11.49675 -3.71887,-23.32529 -3.64508,-35.14647 0.0799,-10.77177 1.01858,-21.57471 3.63007,-32.03916 -0.18778,-0.29593 -1.12827,0.0695 -1.60293,0.0276 -3.03994,0.29904 -6.37806,0.95825 -8.45628,3.40607 -2.08312,2.47053 -2.2214,5.88906 -2.08902,8.9658 0.0603,3.24807 0.49658,6.59921 -0.99496,9.60061 -0.92274,1.67285 -2.78929,2.33814 -4.4936,2.86388 -4.14808,1.21038 -8.52814,1.2803 -12.81618,1.14997 -3.163202,-0.14258 -6.433644,-0.41492 -9.528114,-1.27753 -1.377676,-0.41563 -2.526746,-1.48558 -2.90614,-2.8919 -0.757938,-2.45955 -0.43565,-5.07845 -0.444727,-7.61144 0.08407,-3.40018 0.04056,-7.09481 -1.936243,-10.01814 -1.689117,-2.40937 -4.617585,-3.7313 -7.431107,-4.05582 -0.704109,-0.13423 -1.411549,-0.25157 -2.117721,-0.37778 0,0.21029 0,0.42058 0,0.63086 z" />
  </g>
</svg>
