<?xml version="1.0" encoding="UTF-8" standalone="no"?>
<!-- Created with Inkscape (http://www.inkscape.org/) -->

<svg
   width="210mm"
   height="297mm"
   viewBox="0 0 210 297"
   version="1.1"
   id="svg1"
   inkscape:version="1.4 (86a8ad7, 2024-10-11)"
   sodipodi:docname="hulu.svg"
   xmlns:inkscape="http://www.inkscape.org/namespaces/inkscape"
   xmlns:sodipodi="http://sodipodi.sourceforge.net/DTD/sodipodi-0.dtd"
   xmlns="http://www.w3.org/2000/svg"
   xmlns:svg="http://www.w3.org/2000/svg">
  <sodipodi:namedview
     id="namedview1"
     pagecolor="#ffffff"
     bordercolor="#000000"
     borderopacity="0.25"
     inkscape:showpageshadow="2"
     inkscape:pageopacity="0.0"
     inkscape:pagecheckerboard="0"
     inkscape:deskcolor="#d1d1d1"
     inkscape:document-units="mm"
     inkscape:zoom="0.6137977"
     inkscape:cx="469.20997"
     inkscape:cy="551.48463"
     inkscape:window-width="1440"
     inkscape:window-height="890"
     inkscape:window-x="-6"
     inkscape:window-y="-6"
     inkscape:window-maximized="1"
     inkscape:current-layer="layer1" />
  <defs
     id="defs1">
    <filter
       style="color-interpolation-filters:sRGB;"
       inkscape:label="Drop Shadow"
       id="filter3"
       x="-0.014611413"
       y="-0.044387214"
       width="1.041399"
       height="1.1257638">
      <feFlood
         result="flood"
         in="SourceGraphic"
         flood-opacity="0.498039"
         flood-color="rgb(0,0,0)"
         id="feFlood2" />
      <feGaussianBlur
         result="blur"
         in="SourceGraphic"
         stdDeviation="1.000000"
         id="feGaussianBlur2" />
      <feOffset
         result="offset"
         in="blur"
         dx="2.000000"
         dy="2.000000"
         id="feOffset2" />
      <feComposite
         result="comp1"
         operator="out"
         in="flood"
         in2="offset"
         id="feComposite2" />
      <feComposite
         result="comp2"
         operator="atop"
         in="comp1"
         in2="SourceGraphic"
         id="feComposite3" />
    </filter>
    <filter
       style="color-interpolation-filters:sRGB;"
       inkscape:label="Drop Shadow"
       id="filter5"
       x="-0.011943404"
       y="-0.011943404"
       width="1.0338396"
       height="1.0338396">
      <feFlood
         result="flood"
         in="SourceGraphic"
         flood-opacity="0.498039"
         flood-color="rgb(0,0,0)"
         id="feFlood3" />
      <feGaussianBlur
         result="blur"
         in="SourceGraphic"
         stdDeviation="1.000000"
         id="feGaussianBlur3" />
      <feOffset
         result="offset"
         in="blur"
         dx="2.000000"
         dy="2.000000"
         id="feOffset3" />
      <feComposite
         result="comp1"
         operator="in"
         in="flood"
         in2="offset"
         id="feComposite4" />
      <feComposite
         result="comp2"
         operator="over"
         in="SourceGraphic"
         in2="comp1"
         id="feComposite5" />
    </filter>
  </defs>
  <g
     inkscape:label="Hulu"
     inkscape:groupmode="layer"
     id="layer1"
     style="fill:#008080">
    <rect
       style="fill:#464846;fill-opacity:1;stroke-width:0.351792"
       id="rect5-2"
       width="205.18433"
       height="205.18433"
       x="2.4078369"
       y="45.907837"
       rx="13.29609"
       ry="13.29609"
       inkscape:label="Inner-Shadow" />
    <rect
       style="fill:#181a18;fill-opacity:1;stroke-width:0.351792"
       id="rect5"
       width="205.18433"
       height="205.18433"
       x="2.4078369"
       y="46.966171"
       rx="13.29609"
       ry="13.29609"
       inkscape:label="Background" />
    <path
       style="display:inline;fill:#1de784;stroke:none;stroke-width:0.205314;filter:url(#filter3);fill-opacity:1"
       d="m 21.872418,120.46519 v 53.99761 h 12.934786 v -16.0145 c 0,-2.16799 -0.541079,-5.20861 0.501403,-7.18584 0.491017,-0.93129 1.367378,-1.60057 2.372993,-1.89123 2.721084,-0.78648 9.649209,-0.98152 11.291166,1.68655 1.154094,1.87534 0.617051,4.87089 0.617051,6.97989 v 16.42513 h 12.934785 v -20.94203 c 0,-5.45947 -0.539537,-10.98454 -5.748793,-14.07353 -3.857319,-2.28731 -8.609952,-2.1463 -12.934787,-2.1463 -3.073192,0 -6.072568,-0.12562 -9.033818,0.82127 V 120.46519 H 21.872418 m 100.603892,0 v 53.99761 h 12.93478 v -53.99761 h -12.93478 m -50.50726,16.83575 v 19.29954 c 0,3.90151 -0.340362,7.99391 1.735663,11.49757 1.413083,2.38484 3.48526,4.20195 6.066269,5.24518 3.300082,1.33387 6.785046,1.11957 10.265707,1.11957 7.129488,0 16.096891,1.17354 20.436191,-5.95412 2.23438,-3.67016 1.94304,-7.79491 1.94304,-11.9082 V 137.30094 H 99.48113 v 16.21983 c 0,2.03469 0.57014,5.11238 -0.32285,6.98067 -0.455183,0.95229 -1.358303,1.68727 -2.346223,2.0308 -1.03294,0.35918 -2.208813,0.22765 -3.285031,0.22765 -2.638542,0 -6.356403,0.70298 -8.068237,-1.84863 -1.142213,-1.70254 -0.554948,-4.81037 -0.554948,-6.77455 V 137.30094 H 71.96905 m 73.50243,0 v 18.8889 c 0,4.13862 -0.2661,8.41182 1.94083,12.11353 4.27759,7.17488 12.87351,6.15943 20.02777,6.15943 3.31096,0 6.66858,0.25342 9.85508,-0.82206 2.78928,-0.94141 5.15187,-2.61674 6.72833,-5.13206 2.29159,-3.65637 2.10017,-7.97218 2.10017,-12.11353 v -19.09421 h -12.93478 v 15.80919 c 0,2.24209 0.53012,5.30476 -0.42598,7.39115 -0.43276,0.94433 -1.26604,1.6657 -2.2431,2.00212 -2.71821,0.93598 -9.77318,1.06604 -11.46796,-1.59435 -1.18771,-1.86437 -0.64557,-4.86397 -0.64557,-6.97767 v -16.63044 z"
       id="path1"
       inkscape:label="Text" />
  </g>
</svg>
