<?xml version="1.0" encoding="UTF-8" standalone="no"?>
<!-- Created with Inkscape (http://www.inkscape.org/) -->

<svg
   width="210mm"
   height="297mm"
   viewBox="0 0 210 297"
   version="1.1"
   id="svg1"
   inkscape:version="1.3.2 (091e20e, 2023-11-25)"
   sodipodi:docname="metro_mall.svg"
   inkscape:export-filename="../../opt/Workspaces/Android/Cashew-Icon-Pack/app/src/main/res/drawable-nodpi/metro_mall.png"
   inkscape:export-xdpi="96"
   inkscape:export-ydpi="96"
   xmlns:inkscape="http://www.inkscape.org/namespaces/inkscape"
   xmlns:sodipodi="http://sodipodi.sourceforge.net/DTD/sodipodi-0.dtd"
   xmlns="http://www.w3.org/2000/svg"
   xmlns:svg="http://www.w3.org/2000/svg">
  <sodipodi:namedview
     id="namedview1"
     pagecolor="#ffffff"
     bordercolor="#000000"
     borderopacity="0.25"
     inkscape:showpageshadow="2"
     inkscape:pageopacity="0.0"
     inkscape:pagecheckerboard="0"
     inkscape:deskcolor="#d1d1d1"
     inkscape:document-units="mm"
     inkscape:zoom="0.65575523"
     inkscape:cx="699.19381"
     inkscape:cy="487.22448"
     inkscape:window-width="2560"
     inkscape:window-height="1416"
     inkscape:window-x="0"
     inkscape:window-y="24"
     inkscape:window-maximized="0"
     inkscape:current-layer="layer1" />
  <defs
     id="defs1">
    <filter
       style="color-interpolation-filters:sRGB;"
       inkscape:label="Drop Shadow"
       id="filter5"
       x="-0.025014221"
       y="-0.033924362"
       width="1.0708736"
       height="1.096119">
      <feFlood
         result="flood"
         in="SourceGraphic"
         flood-opacity="0.498039"
         flood-color="rgb(0,0,0)"
         id="feFlood4" />
      <feGaussianBlur
         result="blur"
         in="SourceGraphic"
         stdDeviation="1.000000"
         id="feGaussianBlur4" />
      <feOffset
         result="offset"
         in="blur"
         dx="2.000000"
         dy="2.000000"
         id="feOffset4" />
      <feComposite
         result="comp1"
         operator="in"
         in="flood"
         in2="offset"
         id="feComposite4" />
      <feComposite
         result="comp2"
         operator="over"
         in="SourceGraphic"
         in2="comp1"
         id="feComposite5" />
    </filter>
    <filter
       style="color-interpolation-filters:sRGB;"
       inkscape:label="Drop Shadow"
       id="filter10"
       x="-0.043586124"
       y="-0.043586124"
       width="1.1144136"
       height="1.1144136">
      <feFlood
         result="flood"
         in="SourceGraphic"
         flood-opacity="0.498039"
         flood-color="rgb(0,0,0)"
         id="feFlood9" />
      <feGaussianBlur
         result="blur"
         in="SourceGraphic"
         stdDeviation="2.000000"
         id="feGaussianBlur9" />
      <feOffset
         result="offset"
         in="blur"
         dx="3.000000"
         dy="3.000000"
         id="feOffset9" />
      <feComposite
         result="comp1"
         operator="in"
         in="flood"
         in2="offset"
         id="feComposite9" />
      <feComposite
         result="comp2"
         operator="over"
         in="SourceGraphic"
         in2="comp1"
         id="feComposite10" />
    </filter>
  </defs>
  <g
     inkscape:label="Metro_Mall"
     inkscape:groupmode="layer"
     id="layer1">
    <rect
       style="fill:#669bff;fill-opacity:1;stroke-width:0.372734;filter:url(#filter10)"
       id="rect2-4"
       width="110.12679"
       height="110.12679"
       x="47.625019"
       y="65.616646"
       rx="7.0437956"
       ry="7.0437956"
       inkscape:label="Background_Shadow"
       transform="matrix(1.3550627,0,0,1.3550627,-35.782987,-20.383287)"
       inkscape:export-filename="../../opt/Workspaces/Android/Cashew-Icon-Pack/app/src/main/res/drawable-nodpi/metro_mall.png"
       inkscape:export-xdpi="96"
       inkscape:export-ydpi="96" />
    <rect
       style="fill:#0059ff;fill-opacity:1;stroke-width:0.505078"
       id="rect2"
       width="149.22871"
       height="149.22871"
       x="28.779701"
       y="71.2416"
       rx="9.5447845"
       ry="9.5447845"
       inkscape:label="Background" />
    <rect
       style="fill:#337aff;fill-opacity:1;stroke-width:0.405633"
       id="rect2-9"
       width="119.8469"
       height="119.8469"
       x="44.527081"
       y="85.38224"
       rx="7.6655006"
       ry="7.6655006"
       inkscape:label="Inner_Background" />
    <path
       id="rect1-2"
       style="fill:#ffa819;fill-opacity:1;stroke-width:0.353923;filter:url(#filter5)"
       d="m 120.92383,90.855469 c -5.88232,0.217978 -11.68001,2.302609 -16.36133,5.865234 -0.58568,0.440352 -1.15497,1.250634 -2.01758,1.046875 -1.27456,-0.575536 -2.13701,-1.770139 -3.38535,-2.406511 -7.822781,-5.014587 -18.105479,-5.950449 -26.68295,-2.358593 -6.325833,2.756725 -11.682323,7.768896 -14.759265,13.954796 -2.09067,4.10042 -2.816023,8.74285 -2.829715,13.30673 -0.0149,3.49314 0.0075,6.98649 -0.04526,10.47933 0.0045,3.07905 0.59511,6.42942 2.889155,8.67076 2.317696,2.43854 6.023536,3.34689 9.219493,2.32625 3.368865,-0.95628 6.08945,-3.84098 6.78664,-7.28213 1.302446,-5.50921 -0.88621,-11.17317 0.32715,-16.68771 0.784667,-3.69883 3.808817,-6.86032 7.56286,-7.55797 3.894219,-0.85135 8.159754,0.99242 10.24426,4.38197 1.324694,2.0827 1.41299,4.55667 1.393691,6.9262 -0.0043,6.64466 -0.02828,13.29018 0.0078,19.93438 0.05439,2.87933 0.952955,5.89496 3.177546,7.84765 3.453298,3.2009 9.246765,3.01723 12.712615,-0.0663 2.12571,-1.8218 3.27137,-4.67205 3.20579,-7.44726 -0.0191,-1.42338 -1.29537,-2.29284 -2.43704,-2.86923 -2.07614,-1.26162 -3.95745,-2.94458 -5.25852,-5.00974 -0.72608,-1.13292 -1.07353,-2.81132 0.0151,-3.84375 0.57196,-0.61955 1.35407,-0.97174 2.10212,-1.32813 -0.48337,-3.62582 -0.61717,-7.485 1.23566,-10.74582 0.49156,-0.95413 0.95445,-1.9351 1.17449,-2.99246 -1.67402,-1.05295 -2.31319,-3.6903 -0.90625,-5.20312 1.15918,-1.08442 3.11048,-0.70812 4.06064,0.47524 0.41247,0.42245 0.76265,0.89929 1.12686,1.36265 3.23885,-1.8106 7.05682,-2.75752 10.74955,-2.06017 2.2532,0.36587 4.408,1.15842 6.50826,2.03087 0.82304,-1.27519 2.28204,-2.54803 3.90566,-2.04239 1.73109,0.47282 2.43117,2.72586 1.45632,4.17853 -0.28843,0.63823 -0.96743,1.0465 -1.30533,1.59081 -0.13267,0.83146 0.7019,1.35216 0.9839,2.07542 2.39236,4.18077 2.63082,9.57062 0.51114,13.85026 -0.82087,1.55242 -1.56642,3.44923 -3.29323,4.18308 -3.72269,0.95339 -7.61012,0.26933 -11.32961,-0.35718 -2.20795,-0.25895 -4.37623,-1.39848 -6.68436,-1.20858 -0.43804,0.0931 -1.26922,0.13959 -1.4257,0.37767 0.645,1.05251 1.65846,1.82747 2.84648,2.16499 3.11607,0.82674 5.87992,2.59707 8.4014,4.55785 1.17846,0.8323 2.1176,1.92015 3.128,2.93336 0.782,0.8227 2.24576,1.2408 3.09049,0.28016 0.8549,-1.0067 1.02686,-2.39603 1.81963,-3.45135 0.48599,-0.77809 1.04233,-1.5197 1.71553,-2.1463 0.98855,2.59105 2.94356,4.95443 2.83789,7.85351 -0.0565,1.59597 -1.6113,2.74935 -3.14336,2.66883 -0.82228,0.0366 -1.59693,-0.27173 -2.37031,-0.50476 0.0174,3.02857 -0.20565,6.35402 1.61105,8.9705 2.1782,3.27984 6.55435,4.7292 10.30183,3.64347 3.6829,-0.91868 6.65142,-4.27715 6.88573,-8.09854 0.16999,-2.48423 -0.0956,-4.97494 -0.01,-7.46309 -0.0206,-6.40024 0.008,-12.80015 0.11294,-19.19953 0.0299,-6.77342 -0.37579,-13.799 -3.37033,-19.99853 -3.15984,-6.572988 -9.0339,-11.802719 -15.97798,-14.073069 -3.37078,-1.155917 -6.95413,-1.672821 -10.51463,-1.535122 z m 0.85742,28.212891 c -1.33307,0.11031 -3.09674,0.46523 -3.47946,1.9705 -0.33485,1.28174 0.6704,2.39265 1.69964,2.99173 0.81532,0.41242 1.19891,1.31321 1.06509,2.19847 -0.0651,1.27375 -0.35255,2.94945 0.84754,3.85102 0.44573,0.25301 1.25552,1.18149 0.99578,0.125 0.0361,-1.74092 -0.47886,-3.49216 0.0804,-5.18946 0.66686,-1.1592 2.36356,-1.36207 2.78711,-2.73437 0.48769,-1.14487 -0.19225,-2.50852 -1.36851,-2.86847 -0.82856,-0.33402 -1.74412,-0.39197 -2.62758,-0.34442 z"
       inkscape:label="Logo_Shadow"
       transform="matrix(1.3550627,0,0,1.3550627,-35.782987,-20.383287)" />
    <path
       id="rect1"
       style="fill:#fdd000;fill-opacity:1;stroke-width:0.479588"
       d="m 77.201339,102.16083 c -6.453265,-0.0209 -12.926045,1.51738 -18.427728,4.69026 -9.333675,5.38283 -16.650261,14.3815 -18.840174,25.09129 -1.162149,5.68352 -0.878813,11.44177 -0.878813,17.2093 0,6.96533 -1.150173,14.5101 5.377906,19.07336 6.342993,4.43388 15.396161,1.21667 18.117519,-5.80787 3.334947,-8.60836 -1.847395,-19.16907 2.076235,-27.60657 4.584935,-9.85963 17.779327,-10.88977 24.035317,-2.15116 2.72587,3.80759 2.37944,8.1212 2.37944,12.54843 v 20.07752 c 0,4.17468 -0.30077,8.4562 1.91938,12.18991 5.26299,8.85099 19.060129,6.80971 21.944379,-2.8682 0.43587,-1.46247 1.07887,-4.13217 0.14775,-5.51797 -0.75992,-1.13097 -2.48437,-1.7591 -3.57547,-2.52719 -4.50061,-3.16824 -11.872539,-10.53595 -3.58527,-14.18352 -0.51113,-4.04452 -0.66794,-7.8967 0.62742,-11.83139 0.69554,-2.11269 2.10365,-3.92876 2.59932,-6.09497 -3.50575,-2.60494 -2.86145,-9.40778 2.5097,-8.87074 1.91458,0.19143 3.20938,1.71271 4.30232,3.13432 8.18886,-4.29061 14.71192,-3.42807 22.94572,0 4.89166,-6.92051 12.8265,0.65284 6.45349,6.09496 v 0.35852 c 4.48068,6.16855 5.30733,14.65499 1.87947,21.51162 -1.05445,2.10923 -2.61111,5.35331 -5.10621,5.98082 -5.13036,1.29027 -11.73142,0.13713 -16.85078,-0.82209 -2.56285,-0.48022 -5.70164,-1.91286 -8.24611,-1.21493 1.27573,1.88128 4.10598,2.08427 6.09495,2.98026 3.82719,1.72412 7.23792,4.11049 10.39729,6.85262 1.15638,1.00364 3.04027,3.97903 4.88003,3.20924 1.18444,-0.49564 1.54069,-2.32857 2.06643,-3.36189 1.01419,-1.99342 2.39197,-4.01568 4.16787,-5.3779 1.14918,3.6315 3.85807,6.82815 4.23161,10.75581 0.43217,4.54408 -3.74258,6.37363 -7.45835,5.01937 0,4.62519 -0.14427,8.86162 3.385,12.39089 6.29439,6.29441 17.53354,3.69651 20.19866,-4.86183 0.86877,-2.78978 0.43766,-6.0737 0.43766,-8.96317 v -16.49223 c 0,-17.95537 2.394,-36.02922 -11.47287,-49.83456 -2.3501,-2.33968 -4.97358,-4.38233 -7.88759,-5.98362 -3.58166,-1.96818 -7.45869,-3.35616 -11.47287,-4.12586 -7.63244,-1.46351 -15.86845,-0.55019 -22.94572,2.69035 -2.50509,1.14703 -4.96539,2.49758 -7.17055,4.15527 -0.88899,0.66829 -2.01284,2.0079 -3.22674,1.94389 -1.41601,-0.0747 -2.84332,-1.77922 -3.943799,-2.5496 -2.3522,-1.64662 -4.87944,-2.97653 -7.52907,-4.06844 -4.53025,-1.86693 -9.53755,-2.82608 -14.556752,-2.84231 z m 51.803641,38.25524 c -1.44132,0.0982 -2.80181,0.5015 -3.4305,1.0819 -0.76324,0.70461 -0.86948,1.71024 -0.40755,2.62032 0.74213,1.46214 2.68515,1.80796 3.30307,3.28767 0.87632,2.09844 -0.88102,5.35635 1.29196,6.7651 0,-1.89212 -0.67498,-5.39285 0.36903,-7.0305 1.03925,-1.63021 3.55821,-1.72287 3.73932,-4.07824 0.16346,-2.12583 -2.4631,-2.81005 -4.86533,-2.64625 z"
       inkscape:label="Logo" />
    <path
       id="rect4-0"
       style="fill:#337aff;fill-opacity:1;stroke-width:0.540348"
       d="m 118.007,158.45731 c -0.84848,0.0325 -1.66468,0.3787 -2.49167,0.6025 0.89691,2.01356 2.22549,3.64622 3.89211,4.36101 2.3882,0.99829 4.71298,2.27701 6.82923,4.11331 2.9909,2.50717 5.88252,5.3543 8.3159,8.81851 1.24735,1.88856 2.78702,4.58961 4.90235,3.88144 2.04254,-0.9225 2.24693,-4.25682 3.26693,-6.39669 0.99119,-2.34858 2.23305,-4.51838 3.77573,-6.23991 0.0314,-2.83262 0.063,-5.66525 0.0946,-8.4979 -1.24311,1.48582 -2.46966,3.32657 -4.2464,3.4174 -5.841,1.19506 -11.74046,-0.52281 -17.41611,-2.1193 -2.27648,-0.79671 -4.53592,-2.03398 -6.92269,-1.94037 z"
       inkscape:label="Scarf_Background" />
    <path
       id="rect4-9"
       style="display:inline;fill:#cccccc;fill-opacity:1;stroke-width:0.434144"
       d="m 118.7021,161.66092 c -0.60017,0.0534 -1.34847,0.23256 -1.82616,0.39435 1.07139,1.96559 3.18623,2.98358 5.26434,3.52333 4.51845,1.63373 8.48784,4.52763 11.99691,7.74638 1.37793,1.35655 2.6528,3.45511 4.8426,3.34321 1.83671,-0.31156 2.3803,-2.30569 3.04751,-3.7575 0.92842,-1.91761 2.28488,-3.61967 3.90839,-4.99584 0.0299,-1.95055 0.06,-3.90109 0.09,-5.85165 -1.32108,1.33502 -2.99285,2.56977 -4.96716,2.46561 -5.53662,0.56679 -11.06044,-0.61631 -16.42037,-1.87396 -1.89397,-0.5347 -3.88098,-1.17067 -5.93604,-0.99393 z"
       inkscape:label="Scarf_Shadow" />
    <path
       id="rect4"
       style="display:inline;fill:#ffffff;fill-opacity:1;stroke-width:0.434144"
       d="m 119.97758,160.6735 c -0.79622,0.0224 -1.56217,0.26051 -2.33823,0.41446 0.84167,1.38512 2.08845,2.50822 3.65244,2.99993 2.24115,0.68671 4.42278,1.56635 6.40872,2.82952 2.80672,1.72467 5.52029,3.68321 7.80383,6.06623 1.17056,1.29914 2.61542,3.15717 4.60048,2.67003 1.91677,-0.63459 2.1086,-2.92825 3.06577,-4.40026 0.93016,-1.61557 2.09555,-3.10819 3.54325,-4.29242 0.0295,-1.94855 0.0592,-3.8971 0.0888,-5.84567 -1.16656,1.02208 -2.31759,2.28834 -3.98491,2.35082 -5.48134,0.82207 -11.01754,-0.35964 -16.34371,-1.45786 -2.13628,-0.54806 -4.2566,-1.39917 -6.49641,-1.33478 z"
       inkscape:label="Scarf" />
  </g>
</svg>
