<?xml version="1.0" encoding="UTF-8" standalone="no"?>
<!-- Created with Inkscape (http://www.inkscape.org/) -->

<svg
   version="1.1"
   id="svg1"
   width="682.66669"
   height="682.66669"
   viewBox="0 0 682.66669 682.66669"
   sodipodi:docname="omnissa_horizon.svg"
   inkscape:version="1.4 (86a8ad7, 2024-10-11)"
   inkscape:export-filename="..\app\src\main\res\drawable-nodpi\omnissa_horizon.png"
   inkscape:export-xdpi="96"
   inkscape:export-ydpi="96"
   xmlns:inkscape="http://www.inkscape.org/namespaces/inkscape"
   xmlns:sodipodi="http://sodipodi.sourceforge.net/DTD/sodipodi-0.dtd"
   xmlns="http://www.w3.org/2000/svg"
   xmlns:svg="http://www.w3.org/2000/svg">
  <defs
     id="defs1">
    <filter
       style="color-interpolation-filters:sRGB;"
       inkscape:label="Drop Shadow"
       id="filter52"
       x="-0.014248621"
       y="-0.014248621"
       width="1.0403711"
       height="1.046308">
      <feFlood
         result="flood"
         in="SourceGraphic"
         flood-opacity="0.498039"
         flood-color="rgb(0,0,0)"
         id="feFlood51" />
      <feGaussianBlur
         result="blur"
         in="SourceGraphic"
         stdDeviation="2.000000"
         id="feGaussianBlur51" />
      <feOffset
         result="offset"
         in="blur"
         dx="4.000000"
         dy="6.000000"
         id="feOffset51" />
      <feComposite
         result="comp1"
         operator="in"
         in="flood"
         in2="offset"
         id="feComposite51" />
      <feComposite
         result="comp2"
         operator="over"
         in="SourceGraphic"
         in2="comp1"
         id="feComposite52" />
    </filter>
    <filter
       style="color-interpolation-filters:sRGB;"
       inkscape:label="Drop Shadow"
       id="filter57"
       x="-0.025542264"
       y="-0.039985249"
       width="1.0617271"
       height="1.096631">
      <feFlood
         result="flood"
         in="SourceGraphic"
         flood-opacity="0.498039"
         flood-color="rgb(0,0,0)"
         id="feFlood56" />
      <feGaussianBlur
         result="blur"
         in="SourceGraphic"
         stdDeviation="6.000000"
         id="feGaussianBlur56" />
      <feOffset
         result="offset"
         in="blur"
         dx="6.000000"
         dy="6.000000"
         id="feOffset56" />
      <feComposite
         result="comp1"
         operator="in"
         in="flood"
         in2="offset"
         id="feComposite56" />
      <feComposite
         result="comp2"
         operator="over"
         in="SourceGraphic"
         in2="comp1"
         id="feComposite57" />
    </filter>
  </defs>
  <sodipodi:namedview
     id="namedview1"
     pagecolor="#ffffff"
     bordercolor="#000000"
     borderopacity="0.25"
     inkscape:showpageshadow="2"
     inkscape:pageopacity="0.0"
     inkscape:pagecheckerboard="0"
     inkscape:deskcolor="#d1d1d1"
     showgrid="false"
     inkscape:zoom="1.0092773"
     inkscape:cx="340.83794"
     inkscape:cy="341.33334"
     inkscape:window-width="1440"
     inkscape:window-height="890"
     inkscape:window-x="-6"
     inkscape:window-y="-6"
     inkscape:window-maximized="1"
     inkscape:current-layer="g1" />
  <g
     inkscape:groupmode="layer"
     inkscape:label="Omnissa_Horizon"
     id="g1">
    <path
       id="path3-6"
       style="display:inline;fill:#53bdb6;fill-opacity:1;stroke-width:3.09757;filter:url(#filter57)"
       d="M 246.32812,205 A 180.32704,179.33623 0 0 0 66,384.33594 180.32704,179.33623 0 0 0 238.40039,563.10742 v 0.54102 h 7.59765 a 180.32704,179.33623 0 0 0 0.33008,0.0234 180.32704,179.33623 0 0 0 0.33008,-0.0234 h 224.32031 a 138.68573,137.92372 0 0 0 20.10742,1.48437 A 138.68573,137.92372 0 0 0 629.77148,427.20898 138.68573,137.92372 0 0 0 515.00586,291.39453 L 323.52343,222.26562 A 180.32704,179.33623 0 0 0 292,210.88672 l -8.02149,-2.89649 c 2.47352,0.88026 4.76714,1.76649 7.13086,2.65039 A 180.32704,179.33623 0 0 0 246.32812,205 Z"
       inkscape:label="Cloud_1_Shadow" />
    <path
       id="path3"
       style="display:inline;fill:#1aa89d;fill-opacity:1;stroke-width:3.09757"
       d="M 242.85892,197.39157 A 180.32704,179.33623 0 0 0 62.530801,376.72751 180.32704,179.33623 0 0 0 234.93119,555.49899 v 0.54102 h 7.59765 a 180.32704,179.33623 0 0 0 0.33008,0.0234 180.32704,179.33623 0 0 0 0.33008,-0.0234 h 224.32031 a 138.68573,137.92372 0 0 0 20.10742,1.48437 A 138.68573,137.92372 0 0 0 626.30228,419.60055 138.68573,137.92372 0 0 0 511.53666,283.7861 L 320.05423,214.65719 a 180.32704,179.33623 0 0 0 -31.52343,-11.3789 l -8.02149,-2.89649 c 2.47352,0.88026 4.76714,1.76649 7.13086,2.65039 a 180.32704,179.33623 0 0 0 -44.78125,-5.64062 z"
       inkscape:label="Cloud_1"
       sodipodi:insensitive="true" />
    <path
       id="path3-2"
       style="display:inline;fill:#53bdb5;fill-opacity:1;stroke-width:2.57481"
       d="m 260.00515,236.31367 a 154.03781,145.06112 0 0 0 -154.03874,145.06088 154.03781,145.06112 0 0 0 147.26678,144.6043 v 0.43761 h 6.49 a 154.03781,145.06112 0 0 0 0.28196,0.0188 154.03781,145.06112 0 0 0 0.28196,-0.0188 h 191.61746 a 118.46724,111.56345 0 0 0 17.17602,1.20066 118.46724,111.56345 0 0 0 118.4671,-111.56353 118.46724,111.56345 0 0 0 -98.03437,-109.8573 L 325.94643,250.27944 a 154.03781,145.06112 0 0 0 -26.92774,-9.20413 l -6.85207,-2.3429 c 2.11292,0.71201 4.07217,1.42887 6.09127,2.14383 a 154.03781,145.06112 0 0 0 -38.25274,-4.56257 z"
       inkscape:label="Cloud_1_Inner_Shadow"
       sodipodi:insensitive="true" />
    <circle
       style="display:inline;fill:#53bdb6;fill-opacity:1;stroke-width:3.84981;filter:url(#filter52)"
       id="path5-1"
       cx="359.43735"
       cy="281.43735"
       r="168.43735"
       inkscape:label="Cloud_2_Shadow" />
    <circle
       style="display:inline;fill:#1aa89d;fill-opacity:1;stroke-width:3.84981"
       id="path5"
       cx="354.72763"
       cy="288.30673"
       r="168.43735"
       inkscape:label="Cloud_2"
       sodipodi:insensitive="true" />
    <circle
       style="display:inline;fill:#53bdb5;fill-opacity:1;stroke-width:2.98926"
       id="path5-2"
       cx="356.43735"
       cy="287.43735"
       r="130.78664"
       inkscape:label="Cloud_2_Inner_Shadow"
       sodipodi:insensitive="true" />
  </g>
</svg>
