<?xml version="1.0" encoding="UTF-8" standalone="no"?>
<!-- Created with Inkscape (http://www.inkscape.org/) -->

<svg
   width="210mm"
   height="297mm"
   viewBox="0 0 210 297"
   version="1.1"
   id="svg1"
   inkscape:version="1.4 (86a8ad7, 2024-10-11)"
   sodipodi:docname="samsclub.svg"
   inkscape:export-filename="samsclub.png"
   inkscape:export-xdpi="96"
   inkscape:export-ydpi="96"
   xmlns:inkscape="http://www.inkscape.org/namespaces/inkscape"
   xmlns:sodipodi="http://sodipodi.sourceforge.net/DTD/sodipodi-0.dtd"
   xmlns="http://www.w3.org/2000/svg"
   xmlns:svg="http://www.w3.org/2000/svg">
  <sodipodi:namedview
     id="namedview1"
     pagecolor="#ffffff"
     bordercolor="#000000"
     borderopacity="0.25"
     inkscape:showpageshadow="2"
     inkscape:pageopacity="0.0"
     inkscape:pagecheckerboard="0"
     inkscape:deskcolor="#d1d1d1"
     inkscape:document-units="mm"
     inkscape:zoom="0.6137977"
     inkscape:cx="397.52511"
     inkscape:cy="561.25984"
     inkscape:window-width="1440"
     inkscape:window-height="890"
     inkscape:window-x="-6"
     inkscape:window-y="-6"
     inkscape:window-maximized="1"
     inkscape:current-layer="layer1"
     showgrid="false" />
  <defs
     id="defs1">
    <filter
       style="color-interpolation-filters:sRGB;"
       inkscape:label="Drop Shadow"
       id="filter2"
       x="-0.069804296"
       y="-0.044453362"
       width="1.1832363"
       height="1.1166901">
      <feFlood
         result="flood"
         in="SourceGraphic"
         flood-opacity="0.498039"
         flood-color="rgb(0,0,0)"
         id="feFlood1" />
      <feGaussianBlur
         result="blur"
         in="SourceGraphic"
         stdDeviation="2.000000"
         id="feGaussianBlur1" />
      <feOffset
         result="offset"
         in="blur"
         dx="3.000000"
         dy="3.000000"
         id="feOffset1" />
      <feComposite
         result="comp1"
         operator="in"
         in="flood"
         in2="offset"
         id="feComposite1" />
      <feComposite
         result="comp2"
         operator="over"
         in="SourceGraphic"
         in2="comp1"
         id="feComposite2" />
    </filter>
    <filter
       style="color-interpolation-filters:sRGB;"
       inkscape:label="Drop Shadow"
       id="filter4"
       x="-0.070195304"
       y="-0.044401885"
       width="1.1842627"
       height="1.1165549">
      <feFlood
         result="flood"
         in="SourceGraphic"
         flood-opacity="0.498039"
         flood-color="rgb(0,0,0)"
         id="feFlood2" />
      <feGaussianBlur
         result="blur"
         in="SourceGraphic"
         stdDeviation="2.000000"
         id="feGaussianBlur2" />
      <feOffset
         result="offset"
         in="blur"
         dx="3.000000"
         dy="3.000000"
         id="feOffset2" />
      <feComposite
         result="comp1"
         operator="in"
         in="flood"
         in2="offset"
         id="feComposite3" />
      <feComposite
         result="comp2"
         operator="over"
         in="SourceGraphic"
         in2="comp1"
         id="feComposite4" />
    </filter>
  </defs>
  <g
     inkscape:label="Sams_Club"
     inkscape:groupmode="layer"
     id="layer1"
     transform="matrix(1.4362777,0,0,1.4362777,-44.509596,-64.161901)">
    <path
       id="path1-4-2"
       style="fill:#6dcefd;fill-opacity:1;stroke:none;stroke-width:0.272729"
       inkscape:label="Left_Arrow_Shadow"
       d="m 88.519531,89.294922 c -2.458406,1.930131 -4.89501,3.903847 -7.009093,6.216027 C 66.486835,110.55423 51.412428,125.5496 36.4405,140.64139 c -1.062145,1.36372 -2.124735,2.72709 -3.186594,4.09103 2.027654,2.52737 3.967893,5.14597 6.382524,7.32618 16.155795,16.13498 32.40814,32.17281 48.617476,48.2539 1.120248,0.44162 2.032471,-0.54972 2.69686,-1.30587 3.526515,-3.5137 7.025081,-7.07408 10.641954,-10.47655 1.06499,-1.07486 1.77241,-2.88216 0.80962,-4.24688 -0.9903,-1.47517 -2.455069,-2.53697 -3.632837,-3.85168 -9.660094,-9.64141 -19.275735,-19.32891 -28.989016,-28.91469 -2.231615,-2.03104 -4.885864,-3.78041 -6.380096,-6.47191 -0.144536,-1.07436 1.043818,-1.62379 1.627272,-2.33715 6.327663,-6.21817 12.550042,-12.54383 18.841512,-18.7996 6.755197,-6.7552 13.510394,-13.5104 20.265595,-20.26559 -3.65107,-3.751544 -7.222194,-7.587324 -10.949739,-11.260374 -1.481581,-1.088364 -2.963306,-2.176531 -4.444797,-3.265018 -0.07357,0.05924 -0.147135,0.118489 -0.220703,0.177734 z" />
    <path
       id="path1-4"
       style="display:inline;fill:#049be2;stroke:none;stroke-width:0.264583;filter:url(#filter2)"
       inkscape:label="Left_Arrow"
       d="m 85.953125,91.097656 c -2.386695,1.879945 -4.757444,3.79633 -6.811829,6.044151 -14.573061,14.589573 -29.190668,29.137153 -43.712562,43.774933 -1.029665,1.32005 -2.059049,2.64031 -3.08889,3.96021 2.001418,2.51341 3.946359,5.0929 6.339583,7.25584 15.629213,15.60097 31.337745,31.12217 47.021745,46.66799 1.135858,0.43083 2.030721,-0.60454 2.699654,-1.35772 3.419991,-3.4135 6.824939,-6.84814 10.328772,-10.1744 1.058512,-1.08391 1.623842,-2.9634 0.548627,-4.23195 -1.012316,-1.35735 -2.369207,-2.4053 -3.505314,-3.65432 -9.33553,-9.31224 -18.621645,-18.67425 -28.009987,-27.93198 -2.148202,-1.93298 -4.694723,-3.68384 -6.14183,-6.18283 -0.291188,-1.01416 0.883011,-1.58327 1.427767,-2.23827 7.420803,-7.31222 14.736796,-14.73045 22.12172,-22.08075 5.310978,-5.31098 10.621956,-10.62196 15.932939,-15.93294 -3.539272,-3.64883 -7.014913,-7.364039 -10.633338,-10.930281 -1.433765,-1.054251 -2.870025,-2.105126 -4.302213,-3.161511 -0.07161,0.05794 -0.143229,0.115886 -0.214844,0.173828 z"
       transform="matrix(1.0307861,0,0,1.0307861,0.29819508,-1.9440283)" />
    <path
       id="path1-7"
       style="display:inline;fill:#a1d681;fill-opacity:1;stroke:none;stroke-width:0.272729"
       inkscape:label="Right_Arrow_Shadow"
       d="m 118.52344,90.931641 c -2.32774,1.794594 -4.78775,3.464956 -6.75285,5.68046 -2.50654,2.504623 -5.0105,5.011859 -7.51864,7.514849 -0.42788,1.11249 0.53143,2.03827 1.30078,2.6875 12.55842,12.55959 25.09102,25.14752 37.70274,37.65266 0.5911,0.54072 1.60692,1.28588 1.07241,2.18948 -0.82116,1.65847 -2.2864,2.72629 -3.61575,3.98778 -2.37946,2.00265 -4.65961,4.11669 -6.80154,6.37228 -9.40026,9.41942 -18.85456,18.78685 -28.20161,28.25679 -0.93641,1.15485 -0.90944,2.95175 0.12861,4.03629 1.37228,1.80515 3.27964,3.0398 4.75025,4.7275 2.71782,2.72031 5.43806,5.4382 8.15435,8.16004 16.53909,-16.1101 32.99271,-32.30874 49.35153,-48.59848 1.71801,-1.70508 3.41426,-3.4367 4.85512,-5.38803 0.56116,-0.7032 1.12373,-1.40527 1.68397,-2.1092 -1.83498,-2.33946 -3.57747,-4.77829 -5.81127,-6.76381 -15.0594,-15.05298 -30.27666,-29.94817 -45.36259,-44.973703 -1.45801,-1.342698 -3.15979,-2.376867 -4.71286,-3.602328 -0.0742,0.05664 -0.14843,0.113281 -0.22265,0.169922 z" />
    <path
       id="path1"
       style="display:inline;fill:#5ca91b;stroke:none;stroke-width:0.264583;filter:url(#filter4)"
       inkscape:label="Right_Arraow"
       d="m 114.26758,92.419922 c -2.3231,1.769706 -4.74352,3.453414 -6.6919,5.652724 -2.3833,2.382694 -4.76662,4.765354 -7.1499,7.148054 -0.431397,1.10421 0.55489,1.99949 1.3003,2.64971 12.20321,12.19455 24.37198,24.42458 36.62578,36.56665 0.63159,0.50992 1.52812,1.368 0.8708,2.21138 -1.1731,1.99072 -3.1135,3.35129 -4.79467,4.88136 -3.30799,2.84349 -6.23371,6.09256 -9.36118,9.12864 -7.73673,7.75251 -15.5149,15.46552 -23.20514,23.26169 -0.97991,1.14869 -0.88425,2.973 0.17544,4.04081 1.39196,1.73946 3.25969,3.0072 4.72689,4.67827 2.57186,2.57434 5.14614,5.14626 7.71647,7.72212 16.19562,-15.78141 32.32646,-31.62907 48.32783,-47.60503 1.60286,-1.55965 3.10754,-3.21153 4.4489,-5.00263 0.48149,-0.602 0.96143,-1.20525 1.44397,-1.8064 -1.81919,-2.368 -3.6126,-4.77968 -5.84884,-6.77783 -14.66882,-14.67401 -29.51467,-29.17093 -44.19413,-43.833502 -1.3925,-1.026139 -2.78558,-2.051505 -4.17773,-3.078126 -0.071,0.05404 -0.14193,0.108073 -0.21289,0.16211 z"
       transform="matrix(1.0307861,0,0,1.0307861,0.29819508,-1.9440283)" />
  </g>
</svg>
